<?xml version="1.0" encoding="iso-8859-1"?>
<!-- Generator: Adobe Illustrator 23.0.2, SVG Export Plug-In . SVG Version: 6.00 Build 0)  -->
<svg version="1.1" id="ART-Outlined" xmlns="http://www.w3.org/2000/svg" xmlns:xlink="http://www.w3.org/1999/xlink" x="0px"
	 y="0px" width="100px" height="100px" viewBox="0 0 100 100" enable-background="new 0 0 100 100" xml:space="preserve">
<path fill="#005151" d="M82.371,21.185C82.449,20.799,82.5,20.406,82.5,20c0-0.047-0.008-0.093-0.009-0.14
	c-0.002-0.033-0.003-0.066-0.006-0.099C82.168,11.712,65.992,7.5,50,7.5s-32.168,4.212-32.485,12.262
	c-0.003,0.033-0.004,0.066-0.006,0.099C17.508,19.907,17.5,19.953,17.5,20c0,0.406,0.051,0.799,0.129,1.185L25.02,80.31
	c0.001,0.008,0.004,0.016,0.005,0.024C25.794,87.163,36.731,92.5,50,92.5s24.206-5.337,24.975-12.166
	c0.001-0.008,0.004-0.016,0.005-0.024L82.371,21.185z M50,12.5c17.612,0,27.295,4.853,27.491,7.42l-0.054,0.431
	C76.623,22.973,67.01,27.5,50,27.5s-26.623-4.527-27.437-7.149l-0.054-0.431C22.705,17.353,32.388,12.5,50,12.5z M50,87.5
	c-11.743,0-19.696-4.589-20.012-7.749c-0.001-0.011-0.005-0.021-0.007-0.033c-0.001-0.01,0.001-0.019-0.001-0.029L23.46,27.525
	C29.663,30.81,39.87,32.5,50,32.5s20.337-1.69,26.54-4.975L70.02,79.69c-0.001,0.01,0,0.019-0.001,0.029
	c-0.001,0.011-0.005,0.021-0.007,0.033C69.696,82.911,61.743,87.5,50,87.5z"/>
</svg>
