<svg width="378" height="209" xmlns="http://www.w3.org/2000/svg" xmlns:xlink="http://www.w3.org/1999/xlink"><defs><path id="a" d="M.431.711h388v220h-388z"/></defs><g transform="translate(-.43 -.71)" fill="none" fill-rule="evenodd"><mask id="b" fill="#fff"><use xlink:href="#a"/></mask><g opacity=".8" mask="url(#b)" fill="#F8C1B8"><path d="M269.539-26.577c-.17.74-.5 1.373-1.07 1.872-.302.285-.623.553-.953.802-.99.759-2.103.927-3.253.48-.882-.338-1.755-.73-2.547-1.219-1.872-1.16-2.69-3.672-1.943-5.768.552-1.524 1.372-2.817 2.95-3.476.383-.162.712-.438 1.104-.588 1.167-.473 2.254-.251 3.216.534.313.267.58.615.785.838.348.526.66.944.926 1.39.927 1.614 1.221 3.308.785 5.135zm-11.257-41.557c-.507.418-1.122.525-1.773.41-1.212-.224-2.227-1.257-2.414-2.568-.072-.606-.055-1.24 0-1.864.187-2.183.427-4.358.578-6.542.1-1.364.722-2.37 2.14-3.388.285-.116.944-.454 1.647-.606 2.237-.507 4.224.695 4.847 2.862.17.597.286 1.23.393 1.836.143.74.009 1.454-.25 2.148-.882 2.373-2.245 4.458-3.84 6.41-.383.481-.847.909-1.328 1.302zm8.161 8.076c1.123.089 1.97.686 2.425 1.719 1.139 2.621.488 5.438-1.66 7.364-.47.418-.952.802-1.433 1.203.009.018.019.028.026.036-.33.25-.677.491-.989.757-.695.57-1.496.687-2.351.642-.758-.044-1.4-.401-1.996-.829-.624-.446-1.052-1.105-.918-1.871.311-1.945.633-3.896 1.123-5.803.312-1.257 1.166-2.211 2.405-2.71a7.383 7.383 0 0 1 3.368-.508zm-20.094 45.8c-.624 2.78-3.583 4.137-5.756 2.97-.731-.395-1.453-.804-2.175-1.197-.846-.471-1.434-1.185-1.942-1.987-.419-.641-.535-1.355-.428-2.086.107-.605.268-1.22.509-1.792.204-.454.579-.828.713-1.006 1.238-.972 2.378-1.427 3.625-1.64.874-.143 1.666-.027 2.352.516.651.526 1.265 1.07 1.908 1.605.588.481.9 1.122 1.086 1.846.232.908.304 1.853.108 2.771zm-11.474-13.758c-1.168.918-2.469 1.578-3.912 1.89a1.837 1.837 0 0 1-1.202-.222c-1.417-.882-2.318-2.096-1.98-3.896.127-.624.251-1.24.357-1.846.196-1.096.794-1.916 1.961-2.718-.09.07.072-.063.241-.188 1.14-.75 2.316-.829 3.564-.259 1.693.787 2.52 2.114 2.52 3.977 0 1.336-.498 2.433-1.55 3.262zm-7.331-34.445c.009-.214.107-.4.178-.605.49-1.302 1.418-2.301 2.246-3.228 1.07-.757 2.13-1.185 3.333-1.008 1.79.25 3.26 1.695 3.536 3.503.215 1.364.233 2.71-.391 4.003-.285.563-.446 1.168-.722 1.738a14.71 14.71 0 0 1-3.083 4.306 1.485 1.485 0 0 1-1.746.25c-.553-.313-1.07-.687-1.631-.945-1.31-.59-1.862-1.704-1.897-3.013-.046-1.667.097-3.344.177-5.001zM221.496.167c-.4.303-.943.552-1.434.57-1.621.035-3.091-.481-4.232-1.685-.74-.774-1.158-1.747-1.248-2.816-.035-.4.01-.873.197-1.213.338-.632.793-1.203.97-1.462 1.748-1.497 4.492-1.195 5.57-.134.223.224.481.446.579.723.34.882.713 1.764.865 2.674.222 1.319-.18 2.513-1.267 3.343zm-9.147-45.249c-.347 1.755-.97 3.423-1.763 5.018-.375.74-.864 1.426-1.364 2.095-.606.838-1.88 1.123-2.825.65a15.492 15.492 0 0 1-1.64-.927 3.357 3.357 0 0 1-1.362-1.675c-.26-.677-.526-1.382-.597-2.095-.16-1.346-.25-2.71-.258-4.065 0-2.309 1.621-4.51 3.777-5.242a3.552 3.552 0 0 1 1.854-.115c1.274.284 2.37.827 3.002 1.987 1.275 1.257 1.497 2.729 1.176 4.37zm-15.164 34.635c-.81 1.114-1.924 1.56-3.278 1.363-2.887-.436-5.026-1.836-6.006-4.732-.892-2.639-.436-4.342 1.684-6.089 1.764-1.462 3.769-1.542 5.738-.222.42.284.838.596 1.24.926 1.388 1.124 2.04 2.647 2.056 4.377.01 1.587-.48 3.076-1.434 4.377zM250.522-172l-104.997 33.276-33.266 105.042L7.263-66.962l-104.998 33.28L-131 71.358 7.263 209.678 112.261 176.4l33.265-105.04 104.997 33.278 104.998-33.28 33.265-105.04L250.522-172z"/></g></g></svg>