<svg width="94" height="644" xmlns="http://www.w3.org/2000/svg"><g stroke="#005151" stroke-width="5" fill="none" fill-rule="evenodd" stroke-linecap="round"><path d="M63 216.818H23a9.97 9.97 0 0 1-7.071-2.93 9.968 9.968 0 0 1-2.929-7.07v-40a9.965 9.965 0 0 1 2.929-7.071 9.965 9.965 0 0 1 7.071-2.93h40a9.968 9.968 0 0 1 7.071 2.93 9.965 9.965 0 0 1 2.929 7.07v40a9.968 9.968 0 0 1-2.929 7.072A9.973 9.973 0 0 1 63 216.818zM43 226.818v-80M3 186.818h80"/><path d="M47 515s35-14 35-60c0 0-23-3-35-20M47 515s-35-14-35-60c0 0 23-3 35-20" stroke-linejoin="round"/><path d="M47 489l-13-14M63 465l-16 24M59 300.818c-10 0-10-10-10-10M79 305.818c0 5-5 5-5 5M74 300.818c5 0 5 5 5 5M49 370.818c0-10-10-10-10-10M74 300.818H59M74 310.818H24M74 320.818H24M74 340.818H24M39 360.818H24M19 315.818c0-5 5-5 5-5M24 320.818c-5 0-5-5-5-5M79 325.818c0 5-5 5-5 5M74 320.818c5 0 5 5 5 5M74 330.818H24M19 335.818c0-5 5-5 5-5M24 340.818c-5 0-5-5-5-5M79 345.818c0 5-5 5-5 5M74 340.818c5 0 5 5 5 5M74 350.818H24M19 355.818c0-5 5-5 5-5M24 360.818c-5 0-5-5-5-5M53 201.818H33a5 5 0 0 1-5-5v-20a5 5 0 0 1 5-5h20a5 5 0 0 1 5 5v20a5 5 0 0 1-5 5zM51.964 587.749c3.536 3.536 0 7.07 0 7.07M44.894 587.749c3.535-3.536 7.07 0 7.07 0M59.035 594.82c3.535 3.535 0 7.071 0 7.071M51.964 594.82c3.536-3.536 7.071 0 7.071 0M66.107 601.89c3.535 3.537 0 7.072 0 7.072M59.035 601.89c3.535-3.535 7.071 0 7.071 0M45.6 622.397c-3.535-3.536 0-7.07 0-7.07M52.671 622.397c-3.535 3.536-7.07 0-7.07 0M38.53 615.326c-3.535-3.536 0-7.07 0-7.07M45.6 615.326c-3.535 3.536-7.07 0-7.07 0M31.458 608.255c-3.535-3.536 0-7.07 0-7.07M38.53 608.255c-3.535 3.536-7.071 0-7.071 0M84.491 597.649c3.535 3.535 0 7.07 0 7.07M77.42 597.649c3.535-3.536 7.071 0 7.071 0M51.964 594.82L38.53 608.255M59.035 601.891L45.6 615.326M77.42 597.649l-25.456 25.456M84.491 604.72l-25.058 25.056"/><path d="M59.434 629.777c-14.142 14.142-25.821 13.776-37.135 2.462-14.142-14.142-3.378-49.944-3.378-49.944a5.138 5.138 0 0 1 6.206-3.096c2.76.789 3.886 3.583 3.503 6.429-1.098 8.158-1.577 11.15 2.828 15.556L45.6 587.042"/><path d="M18.722 75.125c-6.364-6.364-8.485-15.557 0-28.284 11.094-16.641 5.696-28.324 5.696-28.324s11.314-2.829 15.556 7.071c0 0 13.396-10.567 16.932-22.588l16.97 16.971-55.154 55.154z" stroke-linejoin="round"/><path stroke-linejoin="round" d="M80.947 27.041L25.793 82.196l-7.07-7.07L73.875 19.97zM18.722 46.84l14.142 14.143M54.877 72.97h36M64.876 62.97h26M74.876 52.97h16"/></g></svg>