<svg width="309" height="214" xmlns="http://www.w3.org/2000/svg" xmlns:xlink="http://www.w3.org/1999/xlink"><defs><path id="a" d="M.162.614h320v220h-320z"/><path id="c" d="M0 0h519.785v381.681H0z"/></defs><g transform="translate(-11.162 -4.614)" fill="none" fill-rule="evenodd"><mask id="b" fill="#fff"><use xlink:href="#a"/></mask><g mask="url(#b)"><g transform="translate(-5 -53)"><mask id="d" fill="#fff"><use xlink:href="#c"/></mask><path d="M195.857 249.96c-.834.923-1.797 1.75-2.661 2.654a7.398 7.398 0 0 1-4.704 2.281 87.658 87.658 0 0 0-1.886.096c-1.69.117-2.627-.61-2.773-2.6-.044-.516-.035-1.05.08-1.554.529-2.166 1.48-4.132 3.004-5.774 1.974-2.131 4.581-2.51 7.131-1.115 1.15.627 1.986 1.524 2.397 2.78.385 1.175.25 2.3-.588 3.232zm-28.027-8.29c-.745.582-1.518 1.127-2.35 1.563-1.956 1.01-4.54.415-5.94-1.308-1.027-1.25-1.713-2.619-1.475-4.315.068-.408 0-.832.072-1.247.2-1.252.945-2.062 2.113-2.484.395-.137.826-.18 1.122-.242.63-.027 1.141-.084 1.669-.08 1.852.03 3.467.647 4.805 1.969.546.525.92 1.134 1.053 1.881.09.406.154.82.198 1.23.14 1.238-.286 2.28-1.267 3.033zm-1.77 26.553c-.72.42-1.436.833-2.15 1.246-.84.484-1.747.625-2.696.65-.766.028-1.444-.244-2.015-.711a8.163 8.163 0 0 1-1.267-1.354c-.293-.414-.413-.923-.505-1.133-.187-1.558.001-2.776.46-3.955.334-.819.834-1.443 1.66-1.747.786-.29 1.568-.538 2.357-.811.707-.263 1.426-.194 2.14.017.899.267 1.746.693 2.433 1.333 2.063 1.965 1.701 5.201-.417 6.465zm-.25 23.8c-.805 1.41-2.004 2.405-3.622 2.763a4.554 4.554 0 0 1-3.056-.379c-.363-.175-.745-.456-.947-.796-.367-.615-.623-1.298-.745-1.58-.385-2.269 1.286-4.466 2.75-4.846.305-.076.63-.184.916-.125.93.163 1.88.295 2.737.633 1.246.489 2.056 1.442 2.215 2.805.053.5-.012 1.095-.248 1.525zm-17.428-23.175c-.133.36-.457.746-.811.918-1.484.762-2.98.915-4.356-.307-.463-.423-.927-.847-1.398-1.254-.827-.736-1.227-1.661-1.315-3.076.016.112-.025-.099-.037-.304-.063-1.367.486-2.421 1.613-3.19 1.542-1.048 3.1-1.081 4.704-.12 1.146.69 1.822 1.677 1.998 3.01.188 1.474.076 2.924-.398 4.323zm-4.446 40.563c-1.858 2.252-4.167 3.363-7.154 2.714-2.713-.59-3.945-1.86-4.352-4.577-.338-2.261.616-4.028 2.76-5.037.46-.213.95-.409 1.432-.587 1.686-.61 3.32-.388 4.81.486 1.373.812 2.39 1.994 3.021 3.486.532 1.265.348 2.453-.517 3.515zm-17.785-25.246c-.523.353-1.078.655-1.63.936a3.424 3.424 0 0 1-2.138.306c-.714-.126-1.463-.263-2.11-.57a36.448 36.448 0 0 1-3.61-1.862c-1.987-1.193-3.032-3.713-2.55-5.938a3.543 3.543 0 0 1 .854-1.65c.904-.954 1.922-1.611 3.253-1.561 1.72-.444 3.1.113 4.344 1.245 1.328 1.202 2.434 2.593 3.388 4.09.44.703.785 1.48 1.102 2.251.406.952-.012 2.187-.903 2.753zm-11.856-38.499c1.136-1.407 3.13-1.926 4.824-1.232 1.27.513 2.441 1.195 3.221 2.391.343.537.779.987 1.126 1.518a14.866 14.866 0 0 1 2.105 4.859 1.514 1.514 0 0 1-.683 1.627c-.554.313-1.139.565-1.65.912-1.178.821-2.418.723-3.566.074-1.445-.813-2.808-1.798-4.195-2.724-.171-.113-.29-.299-.422-.46-.87-1.095-1.242-2.4-1.618-3.591-.09-1.303.087-2.432.858-3.374zm-.25-29.5c.716-2.18 2.769-3.267 4.946-2.687a18 18 0 0 1 1.776.609c.708.258 1.243.734 1.713 1.319 1.579 1.976 2.665 4.219 3.516 6.58.218.587.347 1.205.435 1.82.098.65-.125 1.232-.568 1.727-.806.929-2.215 1.269-3.435.756-.556-.25-1.09-.592-1.597-.958-1.775-1.285-3.517-2.61-5.31-3.864-1.119-.786-1.662-1.837-1.804-3.577.047-.303.096-1.044.329-1.725zm22.21 7.945a7.415 7.415 0 0 1 1.296-3.152c.654-.916 1.602-1.335 2.722-1.194 2.833.37 4.913 2.377 5.452 5.204.116.622.204 1.236.301 1.855a.097.097 0 0 1 .044-.004c.044.411.071.833.14 1.237.133.891-.18 1.638-.667 2.345-.42.632-1.063.993-1.738 1.286-.702.306-1.48.337-2.067-.171-1.507-1.267-3.015-2.547-4.399-3.948-.915-.914-1.293-2.14-1.084-3.458zm16.986-84.103l-104.998 33.28-33.264 105.04L48.244 383.37l104.997 33.277 138.263-138.319 104.997 33.278L501.5 278.327l33.265-105.04L396.501 34.966 291.503 68.244l-33.265 105.043-104.997-33.279z" fill="#F8C1B8" opacity=".8" mask="url(#d)"/></g></g></g></svg>