<svg width="64" height="64" xmlns="http://www.w3.org/2000/svg">
  <g fill="#005151" fill-rule="nonzero">
    <path d="M32 64C14.3552 64 0 49.6449778 0 32 0 14.3552 14.3552 0 32 0s32 14.3552 32 32c0 17.6449778-14.3552 32-32 32zm0-61.81671111C15.5589333 2.18328889 2.18328889 15.5589333 2.18328889 32 2.18328889 48.4408889 15.5589333 61.8167111 32 61.8167111S61.8167111 48.4408889 61.8167111 32C61.8167111 15.5589333 48.4410667 2.18328889 32 2.18328889z"/>
    <path d="M14.9333333 18.1260404c0-3.0983628 2.347578-5.3260404 5.3112331-5.3260404C23.2083921 12.8 25.6 15.0278492 25.6 18.1260404c0 3.1275345-2.3916079 5.3406263-5.3554336 5.3406263-2.9636551 0-5.3112331-2.2130918-5.3112331-5.3406263zm2.2448416 0c0 1.7851279 1.1591124 3.2751082 3.125098 3.2751082 1.9221264 0 3.0814094-1.4899803 3.0814094-3.2751082 0-1.7556131-1.2473428-3.2605224-3.0814094-3.2605224-1.9659856 0-3.125098 1.5047377-3.125098 3.2605224zM33.4543387 23.4666667l-4.4466543-7.1972435v7.1972435h-2.3410177V12.8h2.8125107l4.4462888 7.2278618V12.8h2.3412005v10.6666667zM38.4 18.1260404C38.4 15.0276776 40.7475404 12.8 43.7113187 12.8c2.9637784 0 5.355348 2.2278492 5.355348 5.3260404 0 3.1275345-2.3915696 5.3406263-5.355348 5.3406263-2.9637783 0-5.3113187-2.2130918-5.3113187-5.3406263zm2.245147 0c0 1.7851279 1.1590938 3.2751082 3.125048 3.2751082 1.9220956 0 3.0810188-1.4899803 3.0810188-3.2751082 0-1.7556131-1.2469815-3.2605224-3.0810188-3.2605224-1.9661249 0-3.125048 1.5047377-3.125048 3.2605224zM12.9006501 38.4h-2.2339834V27.7333333h7.4666666v2.0845211h-5.2328576v2.3130078h4.8879069v2.0693004h-4.8879069V38.4zM19.2 33.0593738c0-3.0983629 2.347578-5.3260405 5.3112331-5.3260405 2.9638257 0 5.3554336 2.2278492 5.3554336 5.3260405 0 3.1275344-2.3916079 5.3406262-5.3554336 5.3406262C21.5477486 38.4001716 19.2 36.1869082 19.2 33.0593738zm2.2448416 0c0 1.7851278 1.1591123 3.2751082 3.125098 3.2751082 1.9221264 0 3.0814094-1.4899804 3.0814094-3.2751082 0-1.7556131-1.2473428-3.2605224-3.0814094-3.2605224-1.9659857.0001716-3.125098 1.5049093-3.125098 3.2605224zM32 33.0593738c0-3.0983629 2.347578-5.3260405 5.3112331-5.3260405 2.9638257 0 5.3554336 2.2278492 5.3554336 5.3260405 0 3.1275344-2.3916079 5.3406262-5.3554336 5.3406262C34.347578 38.4001716 32 36.1869082 32 33.0593738zm2.2448416 0c0 1.7851278 1.1591123 3.2751082 3.125098 3.2751082 1.9221264 0 3.0814094-1.4899804 3.0814094-3.2751082 0-1.7556131-1.2473428-3.2605224-3.0814094-3.2605224-1.9661563.0001716-3.125098 1.5049093-3.125098 3.2605224zM43.7333333 38.4V27.7333333h3.5653758c2.9169624 0 6.0346242 1.3997688 6.0346242 5.2649289 0 3.8800268-3.1174822 5.4017378-6.0346242 5.4017378h-3.5653758zm3.2102923-8.5821456h-.9106868v6.4974476h.9259457c2.299785 0 4.0439666-.8369588 4.0439666-3.3172167 0-2.3889341-1.7440021-3.1802309-4.0592255-3.1802309zM28.3981031 49.4532351h2.5352302c-.4638932 2.2719132-2.3805992 3.8800982-5.0859236 3.8800982-3.0300497 0-5.580743-2.0656564-5.580743-5.3111976 0-3.2898126 2.5199469-5.355469 5.5034275-5.355469 2.5972625 0 4.6840626 1.5050566 5.0395343 3.8655127h-2.5814398c-.3403681-1.180228-1.3603938-1.8147851-2.5044838-1.8147851-1.5766975 0-3.0607961 1.2392566-3.0607961 3.2898127 0 2.0507276 1.4377093 3.2752271 3.1535747 3.2752271 1.1902996 0 2.0715169-.5605998 2.5816196-1.829199zM32 47.9927071c0-3.0983628 2.347578-5.3260404 5.3112331-5.3260404 2.9638257 0 5.3554336 2.2278492 5.3554336 5.3260404 0 3.1275344-2.3916079 5.3406262-5.3554336 5.3406262C34.347578 53.3335049 32 51.1202415 32 47.9927071zm2.2448416 0c0 1.7851279 1.1591123 3.2751082 3.125098 3.2751082 1.9221264 0 3.0814094-1.4899803 3.0814094-3.2751082 0-1.7556131-1.2473428-3.2605224-3.0814094-3.2605224-1.9661563 0-3.125098 1.5049093-3.125098 3.2605224zM42.6666667 52.2666667c0-.5953656.4589256-1.0666667 1.0541872-1.0666667.5952616 0 1.0791461.4713011 1.0791461 1.0666667s-.4837402 1.0666666-1.0791461 1.0666666-1.0541872-.471301-1.0541872-1.0666666z"/>
  </g>
</svg>
