<?xml version="1.0" encoding="UTF-8"?>
<svg width="154px" height="64px" viewBox="0 0 154 64" version="1.1" xmlns="http://www.w3.org/2000/svg" xmlns:xlink="http://www.w3.org/1999/xlink">
    <!-- Generator: Sketch 55.1 (78136) - https://sketchapp.com -->
    <title>OnoBlends-Logo_Black</title>
    <desc>Created with Sketch.</desc>
    <g id="Website" stroke="none" stroke-width="1" fill="none" fill-rule="evenodd">
        <g id="Landing-Page-Desktop" transform="translate(-80.000000, -38.000000)" fill="#005151" fill-rule="nonzero">
            <g id="OnoBlends-Logo_Black" transform="translate(80.000000, 38.000000)">
                <path d="M0,20.3017373 C0,6.00788486 9.33385708,0 19.3015873,0 C29.2693175,0 38.6031746,6.00788486 38.6031746,20.2099862 L38.6031746,43.6982627 C38.6031746,58.2652557 29.2693175,64 19.3015873,64 C9.33385708,64 0,58.5380944 0,43.7891083 L0,20.3017373 Z M24.1040025,20.6639126 C24.1040025,16.5671062 21.9299077,14.9294701 19.3015873,14.9294701 C16.6732669,14.9294701 14.4991721,16.5683134 14.4991721,20.6639126 L14.4991721,43.5144587 C14.4991721,47.5207213 16.6741681,49.1583574 19.3015873,49.1583574 C21.9290065,49.1583574 24.1040025,47.5195141 24.1040025,43.5144587 L24.1040025,20.6639126 Z" id="Shape"></path>
                <polygon id="Path" points="58.9484462 31.5422743 58.3967927 31.5422743 58.3967927 62.984127 44.6984127 62.984127 44.6984127 2.03174603 60.2358409 2.03174603 71.1759533 30.4390086 71.7276068 30.4390086 71.7276068 2.03174603 85.3333333 2.03174603 85.3333333 62.984127 70.440212 62.984127"></polygon>
                <path d="M91.4285714,20.3017373 C91.4285714,6.00788486 100.762429,0 110.730159,0 C120.697889,0 130.031746,6.00788486 130.031746,20.2099862 L130.031746,43.6982627 C130.031746,58.2652557 120.697889,64 110.730159,64 C100.762429,64 91.4285714,58.537189 91.4285714,43.7891083 L91.4285714,20.3017373 Z M115.532574,20.6639126 C115.532574,16.5671062 113.358479,14.9294701 110.730159,14.9294701 C108.101838,14.9294701 105.927744,16.5683134 105.927744,20.6639126 L105.927744,43.5144587 C105.927744,47.5207213 108.10274,49.1583574 110.730159,49.1583574 C113.357578,49.1583574 115.532574,47.5195141 115.532574,43.5144587 L115.532574,20.6639126 Z" id="Shape"></path>
                <g id="Group" transform="translate(136.126984, 2.031746)">
                    <path d="M16.4865306,59.6904342 L0.740136054,59.6904342 L0.740136054,55.8028919 C0.740136054,52.9489266 2.71136508,51.7345459 4.77788662,51.7345459 C6.25200398,51.7080117 7.62271666,52.3776263 8.34071655,53.4750443 L8.45944671,53.4750443 C8.88718367,52.3416048 10.359746,51.4917223 11.9985306,51.4917223 C14.5890068,51.4917223 16.4877642,52.7665461 16.4877642,55.5193349 L16.4865306,59.6904342 Z M6.98565079,56.7652511 L6.98565079,56.2623621 C6.98565079,55.3041672 6.46292971,54.8731194 5.60807256,54.8731194 C4.729161,54.8731194 4.25424036,55.2802201 4.25424036,56.1426266 L4.25424036,56.7646291 L6.98565079,56.7652511 Z M10.0969977,56.6220273 L13.0186848,56.6220273 L13.0186848,55.9389874 C13.0186848,55.1477687 12.425034,54.7298955 11.5936145,54.7298955 C10.6909569,54.7298955 10.0969977,55.1477687 10.0969977,56.0052077 L10.0969977,56.6220273 Z" id="Shape"></path>
                    <polygon id="Path" points="0.740136054 50.1371239 0.740136054 46.446624 12.6874739 46.446624 12.6874739 42.6163279 16.4865306 42.6163279 16.4865306 50.1368207"></polygon>
                    <polygon id="Path" points="0.740136054 41.380905 0.740136054 33.5571665 4.51668027 33.5571665 4.51668027 37.6443118 6.51196372 37.6443118 6.51196372 33.7433594 10.0744853 33.7433594 10.0744853 37.6437053 12.6874739 37.6437053 12.6874739 33.4628571 16.4865306 33.4628571 16.4865306 41.380905"></polygon>
                    <polygon id="Path" points="8.36353741 28.3246624 8.36353741 28.4647619 16.4865306 28.4647619 16.4865306 31.9448093 0.740136054 31.9448093 0.740136054 27.9977636 8.07981859 25.2182137 8.07981859 25.0784174 0.740136054 25.0784174 0.740136054 21.6214167 16.4865306 21.6214167 16.4865306 25.405013"></polygon>
                    <path d="M0.740136054,18.4523822 L0.740136054,15.4369691 C0.740136054,12.2430576 1.95149206,10.5762995 6.51196372,10.5762995 L10.7159365,10.5762995 C15.2764082,10.5762995 16.4877642,12.2428001 16.4877642,15.4369691 L16.4877642,18.4523822 L0.740136054,18.4523822 Z M6.01360544,13.7704685 C4.92097959,13.7704685 4.56417234,14.1852266 4.56417234,15.0882521 L4.56417234,15.6249978 L12.6624943,15.6249978 L12.6624943,15.0882521 C12.6624943,14.1852266 12.2825578,13.7704685 11.2130612,13.7704685 L6.01360544,13.7704685 Z" id="Shape"></path>
                    <path d="M9.64582313,6.51250415 C7.98329252,8.73135276 6.48698413,9.29175077 4.58668481,9.29175077 C1.92651247,9.29175077 0.263981859,7.00315565 0.263981859,4.62176735 C0.263981859,2.30982232 1.54626757,-0.0260791282 5.84584127,0.0909737029 L5.84584127,3.40605544 C4.42077098,3.3593556 3.63684354,3.68625444 3.63684354,4.55050462 C3.63684354,5.32135513 4.0645805,5.62490405 4.65823129,5.62490405 C5.06222222,5.62490405 5.63212698,5.46145463 6.22577778,4.69060412 L7.79363265,2.63520493 C9.4799093,0.439706231 10.8812336,0.019710969 12.401288,0.019710969 C15.2279909,0.019710969 16.9617596,2.16820659 16.9617596,4.71425729 C16.9617596,7.18965174 15.6316735,9.47855011 11.4039546,9.36180052 L11.4039546,6.04520256 C12.900263,6.09220564 13.5179683,5.6949538 13.5179683,4.85405354 C13.5531051,4.57853222 13.4568512,4.30249908 13.2571715,4.10615022 C13.0574917,3.90980136 12.7767758,3.81515318 12.4965805,3.84970386 C12.14039,3.84970386 11.5939229,3.89670694 10.9287256,4.78400379 L9.64582313,6.51250415 Z" id="Path"></path>
                    <path d="M16.4865306,59.6904342 L0.740136054,59.6904342 L0.740136054,55.8028919 C0.740136054,52.9489266 2.71136508,51.7345459 4.77788662,51.7345459 C6.25200398,51.7080117 7.62271666,52.3776263 8.34071655,53.4750443 L8.45944671,53.4750443 C8.88718367,52.3416048 10.359746,51.4917223 11.9985306,51.4917223 C14.5890068,51.4917223 16.4877642,52.7665461 16.4877642,55.5193349 L16.4865306,59.6904342 Z M6.98565079,56.7652511 L6.98565079,56.2623621 C6.98565079,55.3041672 6.46292971,54.8731194 5.60807256,54.8731194 C4.729161,54.8731194 4.25424036,55.2802201 4.25424036,56.1426266 L4.25424036,56.7646291 L6.98565079,56.7652511 Z M10.0969977,56.6220273 L13.0186848,56.6220273 L13.0186848,55.9389874 C13.0186848,55.1477687 12.425034,54.7298955 11.5936145,54.7298955 C10.6909569,54.7298955 10.0969977,55.1477687 10.0969977,56.0052077 L10.0969977,56.6220273 Z" id="Shape"></path>
                    <polygon id="Path" points="0.740136054 50.1371239 0.740136054 46.446624 12.6874739 46.446624 12.6874739 42.6163279 16.4865306 42.6163279 16.4865306 50.1368207"></polygon>
                    <polygon id="Path" points="0.740136054 41.380905 0.740136054 33.5571665 4.51668027 33.5571665 4.51668027 37.6443118 6.51196372 37.6443118 6.51196372 33.7433594 10.0744853 33.7433594 10.0744853 37.6437053 12.6874739 37.6437053 12.6874739 33.4628571 16.4865306 33.4628571 16.4865306 41.380905"></polygon>
                    <polygon id="Path" points="8.36353741 28.3246624 8.36353741 28.4647619 16.4865306 28.4647619 16.4865306 31.9448093 0.740136054 31.9448093 0.740136054 27.9977636 8.07981859 25.2182137 8.07981859 25.0784174 0.740136054 25.0784174 0.740136054 21.6214167 16.4865306 21.6214167 16.4865306 25.405013"></polygon>
                    <path d="M0.740136054,18.4523822 L0.740136054,15.4369691 C0.740136054,12.2430576 1.95149206,10.5762995 6.51196372,10.5762995 L10.7159365,10.5762995 C15.2764082,10.5762995 16.4877642,12.2428001 16.4877642,15.4369691 L16.4877642,18.4523822 L0.740136054,18.4523822 Z M6.01360544,13.7704685 C4.92097959,13.7704685 4.56417234,14.1852266 4.56417234,15.0882521 L4.56417234,15.6249978 L12.6624943,15.6249978 L12.6624943,15.0882521 C12.6624943,14.1852266 12.2825578,13.7704685 11.2130612,13.7704685 L6.01360544,13.7704685 Z" id="Shape"></path>
                    <path d="M9.64582313,6.51250415 C7.98329252,8.73135276 6.48698413,9.29175077 4.58668481,9.29175077 C1.92651247,9.29175077 0.263981859,7.00315565 0.263981859,4.62176735 C0.263981859,2.30982232 1.54626757,-0.0260791282 5.84584127,0.0909737029 L5.84584127,3.40605544 C4.42077098,3.3593556 3.63684354,3.68625444 3.63684354,4.55050462 C3.63684354,5.32135513 4.0645805,5.62490405 4.65823129,5.62490405 C5.06222222,5.62490405 5.63212698,5.46145463 6.22577778,4.69060412 L7.79363265,2.63520493 C9.4799093,0.439706231 10.8812336,0.019710969 12.401288,0.019710969 C15.2279909,0.019710969 16.9617596,2.16820659 16.9617596,4.71425729 C16.9617596,7.18965174 15.6316735,9.47855011 11.4039546,9.36180052 L11.4039546,6.04520256 C12.900263,6.09220564 13.5179683,5.6949538 13.5179683,4.85405354 C13.5531051,4.57853222 13.4568512,4.30249908 13.2571715,4.10615022 C13.0574917,3.90980136 12.7767758,3.81515318 12.4965805,3.84970386 C12.14039,3.84970386 11.5939229,3.89670694 10.9287256,4.78400379 L9.64582313,6.51250415 Z" id="Path"></path>
                </g>
            </g>
        </g>
    </g>
</svg>