<?xml version="1.0" encoding="UTF-8"?>
<svg width="77px" height="68px" viewBox="0 0 77 68" version="1.1" xmlns="http://www.w3.org/2000/svg" xmlns:xlink="http://www.w3.org/1999/xlink">
    <title>Group 9</title>
    <desc>Created with Sketch.</desc>
    <g id="Page-1" stroke="none" stroke-width="1" fill="none" fill-rule="evenodd" stroke-linecap="round">
        <g id="Group-8" transform="translate(-9.000000, -573.000000)" stroke="#005151" stroke-width="5">
            <g id="Group-9" transform="translate(12.000000, 576.000000)">
                <path d="M36.9641014,8.74878954 C40.5001014,12.2847895 36.9641014,15.8197895 36.9641014,15.8197895" id="Stroke-59"></path>
                <path d="M29.8938014,8.74878954 C33.4288014,5.21278954 36.9638014,8.74878954 36.9638014,8.74878954" id="Stroke-61"></path>
                <path d="M44.0354014,15.8200895 C47.5704014,19.3550895 44.0354014,22.8910895 44.0354014,22.8910895" id="Stroke-63"></path>
                <path d="M36.9641014,15.8200895 C40.5001014,12.2840895 44.0351014,15.8200895 44.0351014,15.8200895" id="Stroke-65"></path>
                <path d="M51.1066014,22.8908895 C54.6416014,26.4268895 51.1066014,29.9618895 51.1066014,29.9618895" id="Stroke-67"></path>
                <path d="M44.0354014,22.8908895 C47.5704014,19.3548895 51.1064014,22.8908895 51.1064014,22.8908895" id="Stroke-69"></path>
                <path d="M30.6008014,43.3971895 C27.0648014,39.8611895 30.6008014,36.3261895 30.6008014,36.3261895" id="Stroke-71"></path>
                <path d="M37.6711014,43.3971895 C34.1361014,46.9331895 30.6011014,43.3971895 30.6011014,43.3971895" id="Stroke-73"></path>
                <path d="M23.5295014,36.3263895 C19.9945014,32.7903895 23.5295014,29.2553895 23.5295014,29.2553895" id="Stroke-75"></path>
                <path d="M30.6008014,36.3263895 C27.0648014,39.8623895 23.5298014,36.3263895 23.5298014,36.3263895" id="Stroke-77"></path>
                <path d="M16.4582014,29.2551895 C12.9232014,25.7191895 16.4582014,22.1841895 16.4582014,22.1841895" id="Stroke-79"></path>
                <path d="M23.5295014,29.2551895 C19.9945014,32.7911895 16.4585014,29.2551895 16.4585014,29.2551895" id="Stroke-81"></path>
                <path d="M69.4914014,18.6486895 C73.0264014,22.1836895 69.4914014,25.7196895 69.4914014,25.7196895" id="Stroke-83"></path>
                <path d="M62.4201014,18.6486895 C65.9551014,15.1126895 69.4911014,18.6486895 69.4911014,18.6486895" id="Stroke-85"></path>
                <path d="M36.9641014,15.8200895 L23.5291014,29.2550895" id="Stroke-87"></path>
                <path d="M44.0354014,22.8913895 L30.6004014,36.3263895" id="Stroke-89"></path>
                <path d="M62.4201014,18.6486895 L36.9641014,44.1046895" id="Stroke-91"></path>
                <path d="M69.4914014,25.7194895 L44.4334014,50.7764895" id="Stroke-93"></path>
                <path d="M44.4338014,50.7765895 C30.2918014,64.9185895 18.6128014,64.5525895 7.29880136,53.2385895 C-6.84319864,39.0965895 3.92080136,3.29458954 3.92080136,3.29458954 C4.87580136,0.811589543 7.56880136,-0.532410457 10.1268014,0.198589543 C12.8878014,0.987589543 14.0128014,3.78158954 13.6298014,6.62758954 C12.5318014,14.7855895 12.0528014,17.7775895 16.4578014,22.1835895 L30.6008014,8.04158954" id="Stroke-95"></path>
            </g>
        </g>
    </g>
</svg>
