<svg width="806" height="332" xmlns="http://www.w3.org/2000/svg"><g fill="none" fill-rule="evenodd"><path d="M242.86 73.153h-40a9.97 9.97 0 0 1-7.07-2.93 9.968 9.968 0 0 1-2.93-7.07v-40a9.965 9.965 0 0 1 2.93-7.071 9.965 9.965 0 0 1 7.07-2.93h40a9.968 9.968 0 0 1 7.071 2.93 9.965 9.965 0 0 1 2.93 7.07v40a9.968 9.968 0 0 1-2.93 7.072 9.973 9.973 0 0 1-7.07 2.929zM222.86 83.153v-80M182.86 43.153h80" stroke="#005151" stroke-width="5" stroke-linecap="round"/><path d="M582.828 83.153s35-14 35-60c0 0-23-3-35-20M582.828 83.153s-35-14-35-60c0 0 23-3 35-20" stroke="#005151" stroke-width="5" stroke-linecap="round" stroke-linejoin="round"/><path d="M582.828 57.153l-13-14M598.828 33.153l-16 24M412.845 13.153c-10 0-10-10-10-10M432.845 18.153c0 5-5 5-5 5M427.845 13.153c5 0 5 5 5 5M402.844 83.153c0-10-10-10-10-10M427.845 13.153h-15M427.845 23.153h-50M427.845 33.153h-50M427.845 53.153h-50M392.844 73.153h-15M372.844 28.153c0-5 5-5 5-5M377.844 33.153c-5 0-5-5-5-5M432.845 38.153c0 5-5 5-5 5M427.845 33.153c5 0 5 5 5 5M427.845 43.153h-50M372.844 48.153c0-5 5-5 5-5M377.844 53.153c-5 0-5-5-5-5M432.845 58.153c0 5-5 5-5 5M427.845 53.153c5 0 5 5 5 5M427.845 63.153h-50M372.844 68.153c0-5 5-5 5-5M377.844 73.153c-5 0-5-5-5-5M232.86 58.153h-20a5 5 0 0 1-5-5v-20a5 5 0 0 1 5-5h20a5 5 0 0 1 5 5v20a5 5 0 0 1-5 5zM766.776 21.116c3.536 3.536 0 7.071 0 7.071M759.706 21.116c3.535-3.536 7.07 0 7.07 0M773.848 28.188c3.535 3.535 0 7.07 0 7.07M766.776 28.188c3.536-3.537 7.071 0 7.071 0M780.919 35.258c3.535 3.536 0 7.071 0 7.071M773.848 35.258c3.535-3.536 7.07 0 7.07 0M760.413 55.765c-3.536-3.536 0-7.071 0-7.071M767.483 55.765c-3.535 3.536-7.07 0-7.07 0M753.342 48.694c-3.535-3.536 0-7.071 0-7.071M760.413 48.694c-3.536 3.536-7.07 0-7.07 0M746.27 41.623c-3.534-3.536 0-7.071 0-7.071M753.342 41.623c-3.535 3.536-7.071 0-7.071 0M799.304 31.016c3.535 3.535 0 7.071 0 7.071M792.232 31.016c3.535-3.536 7.071 0 7.071 0M766.776 28.188l-13.435 13.435M773.848 35.259l-13.435 13.435M792.232 31.016l-25.456 25.456M799.304 38.087l-25.058 25.057" stroke="#005151" stroke-width="5" stroke-linecap="round"/><path d="M774.246 63.144c-14.142 14.142-25.82 13.776-37.135 2.462-14.142-14.142-3.378-49.944-3.378-49.944a5.138 5.138 0 0 1 6.206-3.096c2.761.789 3.886 3.583 3.503 6.429-1.098 8.158-1.577 11.15 2.828 15.556l14.143-14.142" stroke="#005151" stroke-width="5" stroke-linecap="round"/><path d="M10.722 75.307c-6.364-6.364-8.485-15.557 0-28.284C21.816 30.383 16.418 18.7 16.418 18.7s11.314-2.829 15.556 7.071c0 0 13.396-10.567 16.932-22.588l16.97 16.971-55.154 55.154z" stroke="#005151" stroke-width="5" stroke-linecap="round" stroke-linejoin="round"/><path stroke="#005151" stroke-width="5" stroke-linecap="round" stroke-linejoin="round" d="M72.947 27.224L17.793 82.378l-7.07-7.071 55.153-55.154zM10.722 47.023l14.142 14.142M46.877 73.153h36M56.877 63.153h26M66.876 53.153h16M762.968 264.184c0 10-18.75 18.75-18.75 31.25 0 10.355 8.395 18.75 18.75 18.75s18.75-8.395 18.75-18.75c0-12.5-18.75-21.25-18.75-31.25zM762.968 305.184c5.523 0 10-4.477 10-10M83.032 289.184c0 22.092-17.909 40-40 40-22.092 0-40-17.908-40-40 0-22.091 17.908-40 40-40 22.091 0 40 17.909 40 40z"/><path d="M73.032 289.184c0 16.569-13.432 30-30 30-16.569 0-30-13.431-30-30 0-16.568 13.431-30 30-30 16.568 0 30 13.432 30 30z" stroke="#005151" stroke-width="5" stroke-linecap="round" stroke-linejoin="round" stroke-dasharray="0,9.917999999999999"/><path d="M63.032 289.184c0 11.046-8.955 20-20 20-11.046 0-20-8.954-20-20 0-11.045 8.954-20 20-20 11.045 0 20 8.955 20 20z" stroke="#005151" stroke-width="5" stroke-linecap="round" stroke-linejoin="round" stroke-dasharray="0,9.664"/><path d="M53.032 289.184c0 5.523-4.478 10-10 10-5.523 0-10-4.477-10-10 0-5.522 4.477-10 10-10 5.522 0 10 4.478 10 10z" stroke="#005151" stroke-width="5" stroke-linecap="round" stroke-linejoin="round" stroke-dasharray="0,10.469"/><path d="M45.532 289.184a2.5 2.5 0 1 0-5.002.001 2.5 2.5 0 0 0 5.002-.001" fill="#005151"/><path d="M443 289.184c0 22.092-17.908 40-40 40-22.091 0-40-17.908-40-40 0-22.091 17.909-40 40-40 22.092 0 40 17.909 40 40zM622.984 289.184c0 22.092-17.909 40-40 40-22.092 0-40-17.908-40-40 0-22.091 17.908-40 40-40 22.091 0 40 17.909 40 40zM802.968 289.184c0 22.092-17.908 40-40 40-22.091 0-40-17.908-40-40 0-22.091 17.909-40 40-40 22.092 0 40 17.909 40 40z" stroke="#005151" stroke-width="5" stroke-linecap="round" stroke-linejoin="round"/><path d="M596.815 262.41c-1.854-1.855-4.26-2.457-5.374-1.344-1.113 1.113-.512 3.52 1.344 5.374 1.854 1.856 4.26 2.456 5.374 1.344 1.113-1.113.511-3.519-1.344-5.374M584.999 262.41c-1.854-1.855-4.261-2.457-5.374-1.344-1.112 1.113-.512 3.52 1.344 5.374 1.854 1.856 4.26 2.456 5.374 1.344 1.113-1.113.511-3.519-1.344-5.374M573.183 262.41c-1.854-1.855-4.261-2.457-5.374-1.344-1.112 1.113-.511 3.52 1.344 5.374 1.855 1.856 4.26 2.456 5.374 1.344 1.113-1.113.51-3.519-1.344-5.374M569.152 274.79c1.855-1.855 4.261-2.457 5.374-1.344 1.113 1.113.512 3.52-1.344 5.374-1.854 1.855-4.26 2.456-5.374 1.343-1.112-1.112-.51-3.519 1.344-5.374M580.969 274.79c1.854-1.855 4.26-2.457 5.374-1.344 1.113 1.113.512 3.52-1.344 5.374-1.854 1.855-4.26 2.456-5.374 1.343-1.112-1.112-.511-3.519 1.344-5.374M592.785 274.79c1.854-1.855 4.261-2.457 5.374-1.344 1.113 1.113.512 3.52-1.344 5.374-1.854 1.855-4.26 2.456-5.374 1.343-1.113-1.112-.51-3.519 1.344-5.374M604.602 274.79c1.854-1.855 4.26-2.457 5.374-1.344 1.112 1.113.51 3.52-1.344 5.374-1.855 1.855-4.26 2.456-5.374 1.343-1.113-1.112-.511-3.519 1.344-5.374M557.336 274.79c1.855-1.855 4.262-2.457 5.374-1.344 1.113 1.113.512 3.52-1.343 5.374-1.855 1.855-4.261 2.456-5.374 1.343-1.113-1.112-.511-3.519 1.343-5.374M596.815 287.169c-1.854-1.855-4.26-2.457-5.374-1.344-1.113 1.114-.512 3.519 1.344 5.374 1.854 1.856 4.26 2.456 5.374 1.344 1.113-1.113.511-3.52-1.344-5.374M584.999 287.169c-1.854-1.855-4.261-2.457-5.374-1.344-1.112 1.114-.512 3.519 1.344 5.374 1.854 1.856 4.26 2.456 5.374 1.344 1.113-1.113.511-3.52-1.344-5.374M573.183 287.169c-1.854-1.855-4.261-2.457-5.374-1.344-1.112 1.114-.511 3.519 1.344 5.374 1.855 1.856 4.26 2.456 5.374 1.344 1.113-1.113.51-3.52-1.344-5.374M561.367 287.169c-1.855-1.855-4.262-2.457-5.374-1.344-1.113 1.114-.512 3.519 1.343 5.374 1.855 1.856 4.261 2.456 5.374 1.344 1.113-1.113.511-3.52-1.343-5.374M608.632 287.169c-1.855-1.855-4.261-2.457-5.374-1.344-1.113 1.114-.512 3.519 1.344 5.374 1.854 1.856 4.26 2.456 5.374 1.344 1.112-1.113.51-3.52-1.344-5.374M569.152 299.548c1.855-1.854 4.261-2.456 5.374-1.343 1.113 1.113.512 3.519-1.344 5.373-1.854 1.856-4.26 2.457-5.374 1.344-1.112-1.112-.51-3.52 1.344-5.374M580.969 299.548c1.854-1.854 4.26-2.456 5.374-1.343 1.113 1.113.512 3.519-1.344 5.373-1.854 1.856-4.26 2.457-5.374 1.344-1.112-1.112-.511-3.52 1.344-5.374M592.785 299.548c1.854-1.854 4.261-2.456 5.374-1.343 1.113 1.113.512 3.519-1.344 5.373-1.854 1.856-4.26 2.457-5.374 1.344-1.113-1.112-.51-3.52 1.344-5.374M604.602 299.548c1.854-1.854 4.26-2.456 5.374-1.343 1.112 1.113.51 3.519-1.344 5.373-1.855 1.856-4.26 2.457-5.374 1.344-1.113-1.112-.511-3.52 1.344-5.374M557.336 299.548c1.855-1.854 4.262-2.456 5.374-1.343 1.113 1.113.512 3.519-1.343 5.373-1.855 1.856-4.261 2.457-5.374 1.344-1.113-1.112-.511-3.52 1.343-5.374M596.815 311.928c-1.854-1.855-4.26-2.457-5.374-1.344-1.113 1.114-.512 3.519 1.344 5.374 1.854 1.855 4.26 2.456 5.374 1.344 1.113-1.113.511-3.52-1.344-5.374M584.999 311.928c-1.854-1.855-4.261-2.457-5.374-1.344-1.112 1.114-.512 3.519 1.344 5.374 1.854 1.855 4.26 2.456 5.374 1.344 1.113-1.113.511-3.52-1.344-5.374M573.183 311.928c-1.854-1.855-4.261-2.457-5.374-1.344-1.112 1.114-.511 3.519 1.344 5.374 1.855 1.855 4.26 2.456 5.374 1.344 1.113-1.113.51-3.52-1.344-5.374" fill="#005151"/><path d="M263.016 289.184c0 22.092-17.909 40-40 40-22.09 0-40-17.908-40-40 0-22.091 17.91-40 40-40 22.091 0 40 17.909 40 40z" stroke="#005151" stroke-width="5" stroke-linecap="round" stroke-linejoin="round"/><path d="M223.016 274.184c-10 0-20 5-20 15 0 20 15 30 20 30s20-10 20-30c0-10-10-15-20-15zM223.016 258.184s-4.017 2.971-4.842 6.812a4.72 4.72 0 0 0-.076.376c-.05.293-.082.57-.082.812a5 5 0 0 0 10 0c0-.242-.033-.519-.082-.812a5.207 5.207 0 0 0-.075-.376c-.826-3.84-4.843-6.812-4.843-6.812zM206.359 263.308s-.74 4.941 1.393 8.241c.066.11.137.215.212.32.173.241.345.46.517.632a5.001 5.001 0 0 0 7.07-7.072 5.098 5.098 0 0 0-.631-.516 5.059 5.059 0 0 0-.32-.212c-3.3-2.133-8.241-1.393-8.241-1.393zM239.673 263.308s.74 4.941-1.393 8.241a5.059 5.059 0 0 1-.212.32c-.173.241-.345.46-.516.632a5.001 5.001 0 0 1-7.071-7.072c.17-.17.39-.343.63-.516.106-.075.212-.146.32-.212 3.3-2.133 8.242-1.393 8.242-1.393z" stroke="#005151" stroke-width="5" stroke-linecap="round" stroke-linejoin="round"/><path d="M225.516 290.684a2.5 2.5 0 1 0-5.002.001 2.5 2.5 0 0 0 5.002-.001M235.516 290.684a2.5 2.5 0 1 0-5.002.001 2.5 2.5 0 0 0 5.002-.001M215.516 290.684a2.5 2.5 0 1 0-5.002.001 2.5 2.5 0 0 0 5.002-.001M230.516 300.684a2.5 2.5 0 1 0-5.002.001 2.5 2.5 0 0 0 5.002-.001M220.516 300.684a2.5 2.5 0 1 0-5.002.001 2.5 2.5 0 0 0 5.002-.001" fill="#005151"/><path d="M403 319.184v-36M403 305.184v-5c0-5-5-8-10-13M403 291.184v-5c0-5-2-5-7-10M403 305.184v-5c0-5 5-8 10-13M403 291.184v-5c0-5 2-5 7-10" stroke="#005151" stroke-width="5" stroke-linecap="round" stroke-linejoin="round"/><path d="M403 314.184c0-7.761 20-11.087 20-27.717 0-12.196-5-23.283-20-23.283M403 314.184c0-7.761-20-11.087-20-27.717 0-12.196 5-23.283 20-23.283" stroke="#005151" stroke-width="5" stroke-linecap="round" stroke-linejoin="round"/></g></svg>