<svg width="802" height="86" xmlns="http://www.w3.org/2000/svg"><g stroke="#005151" stroke-width="5" fill="none" fill-rule="evenodd" stroke-linecap="round"><path d="M240.86 73.153h-40a9.97 9.97 0 0 1-7.07-2.93 9.968 9.968 0 0 1-2.93-7.07v-40a9.965 9.965 0 0 1 2.93-7.071 9.965 9.965 0 0 1 7.07-2.93h40a9.968 9.968 0 0 1 7.071 2.93 9.965 9.965 0 0 1 2.93 7.07v40a9.968 9.968 0 0 1-2.93 7.072 9.973 9.973 0 0 1-7.07 2.929zM220.86 83.153v-80M180.86 43.153h80"/><path d="M580.828 83.153s35-14 35-60c0 0-23-3-35-20M580.828 83.153s-35-14-35-60c0 0 23-3 35-20" stroke-linejoin="round"/><path d="M580.828 57.153l-13-14M596.828 33.153l-16 24M410.845 13.153c-10 0-10-10-10-10M430.845 18.153c0 5-5 5-5 5M425.845 13.153c5 0 5 5 5 5M400.844 83.153c0-10-10-10-10-10M425.845 13.153h-15M425.845 23.153h-50M425.845 33.153h-50M425.845 53.153h-50M390.844 73.153h-15M370.844 28.153c0-5 5-5 5-5M375.844 33.153c-5 0-5-5-5-5M430.845 38.153c0 5-5 5-5 5M425.845 33.153c5 0 5 5 5 5M425.845 43.153h-50M370.844 48.153c0-5 5-5 5-5M375.844 53.153c-5 0-5-5-5-5M430.845 58.153c0 5-5 5-5 5M425.845 53.153c5 0 5 5 5 5M425.845 63.153h-50M370.844 68.153c0-5 5-5 5-5M375.844 73.153c-5 0-5-5-5-5M230.86 58.153h-20a5 5 0 0 1-5-5v-20a5 5 0 0 1 5-5h20a5 5 0 0 1 5 5v20a5 5 0 0 1-5 5zM764.776 21.116c3.536 3.536 0 7.071 0 7.071M757.706 21.116c3.535-3.536 7.07 0 7.07 0M771.848 28.188c3.535 3.535 0 7.07 0 7.07M764.776 28.188c3.536-3.537 7.071 0 7.071 0M778.919 35.258c3.535 3.536 0 7.071 0 7.071M771.848 35.258c3.535-3.536 7.07 0 7.07 0M758.413 55.765c-3.536-3.536 0-7.071 0-7.071M765.483 55.765c-3.535 3.536-7.07 0-7.07 0M751.342 48.694c-3.535-3.536 0-7.071 0-7.071M758.413 48.694c-3.536 3.536-7.07 0-7.07 0M744.27 41.623c-3.534-3.536 0-7.071 0-7.071M751.342 41.623c-3.535 3.536-7.071 0-7.071 0M797.304 31.016c3.535 3.535 0 7.071 0 7.071M790.232 31.016c3.535-3.536 7.071 0 7.071 0M764.776 28.188l-13.435 13.435M771.848 35.259l-13.435 13.435M790.232 31.016l-25.456 25.456M797.304 38.087l-25.058 25.057"/><path d="M772.246 63.144c-14.142 14.142-25.82 13.776-37.135 2.462-14.142-14.142-3.378-49.944-3.378-49.944a5.138 5.138 0 0 1 6.206-3.096c2.761.789 3.886 3.583 3.503 6.429-1.098 8.158-1.577 11.15 2.828 15.556l14.143-14.142"/><path d="M8.722 75.307c-6.364-6.364-8.485-15.557 0-28.284C19.816 30.383 14.418 18.7 14.418 18.7s11.314-2.829 15.556 7.071c0 0 13.396-10.567 16.932-22.588l16.97 16.971L8.722 75.307z" stroke-linejoin="round"/><path stroke-linejoin="round" d="M70.947 27.224L15.793 82.378l-7.07-7.071 55.153-55.154zM8.722 47.023l14.142 14.142M44.877 73.153h36M54.877 63.153h26M64.876 53.153h16"/></g></svg>