<?xml version="1.0" encoding="UTF-8"?>
<svg width="1124px" height="1031px" viewBox="0 0 1124 1031" version="1.1" xmlns="http://www.w3.org/2000/svg" xmlns:xlink="http://www.w3.org/1999/xlink">
    <!-- Generator: Sketch 50.2 (55047) - http://www.bohemiancoding.com/sketch -->
    <title>Group 3</title>
    <desc>Created with Sketch.</desc>
    <defs></defs>
    <g id="Page-1" stroke="none" stroke-width="1" fill="none" fill-rule="evenodd">
        <g id="Group-3">
            <path d="M421.823719,451.075709 C422.608275,450.956021 421.318412,451.11893 422.176104,451.022514 C422.585005,450.975969 422.993905,450.929423 423.406129,450.889527 C424.403446,450.789786 425.400764,450.713319 426.398081,450.6435 C428.708533,450.483915 431.018985,450.370876 433.332761,450.264486 C438.345942,450.031758 443.359124,449.742511 448.37563,449.543029 C459.136684,449.11747 469.921008,448.894716 480.522491,446.810138 C499.700903,443.039945 517.519638,433.936957 532.665564,421.715415 C539.832951,415.933787 546.488382,409.41408 554.55003,404.835988 C558.030667,402.86445 561.660902,401.381641 565.610279,400.683457 C565.849635,400.640236 566.733923,400.507248 566.607596,400.523872 C566.481269,400.540495 567.362233,400.454053 567.604913,400.434105 C568.564554,400.356529 569.526411,400.319958 570.490485,400.324391 C571.376989,400.324391 572.263493,400.367612 573.149997,400.454053 C573.940846,400.518634 574.725522,400.644237 575.497018,400.829743 C576.338088,401.009276 577.159213,401.23203 577.990311,401.49468 C578.395886,401.624343 578.798138,401.767304 579.197065,401.91359 C579.197065,401.91359 579.841997,402.169591 579.486287,402.01998 C579.638742,402.099969 579.795194,402.172099 579.955026,402.236085 C580.710107,402.5954 581.444805,402.996078 582.155773,403.436296 C582.508158,403.657942 582.852787,403.889561 583.189658,404.131155 C583.575288,404.403779 583.246173,404.161077 583.189658,404.104558 C583.405744,404.274117 583.618505,404.45365 583.824617,404.636507 C584.500299,405.232173 585.132443,405.875484 585.716195,406.5615 C586.018715,406.917241 585.779359,406.614695 585.716195,406.541552 C585.845847,406.707786 585.965525,406.87402 586.085203,407.056878 C586.367776,407.469139 586.637052,407.888049 586.886381,408.320258 C587.797053,409.961936 588.397699,411.757273 588.658282,413.616482 C589.865035,422.260663 584.76542,430.612272 579.230309,437.038889 C576.062164,440.712666 572.631392,444.147065 569.400084,447.764323 C565.894988,451.71861 562.649155,455.895366 559.68289,460.268464 C553.758825,468.935918 548.712399,478.178543 543.479808,487.274881 L526.708255,516.468941 C521.705047,525.179616 516.765002,534.026603 510.382171,541.82964 C499.152378,555.560589 484.149402,566.841246 466.407127,569.996372 C458.026337,571.485831 448.987318,570.953881 441.025401,567.609248 C433.479034,564.437498 427.468535,558.599351 423.053744,551.860215 C418.373001,544.705492 415.231452,536.9623 412.448936,528.953134 C408.931731,518.829468 405.823425,508.549541 403.047559,498.196472 C401.631368,492.921305 400.312693,487.622865 399.091533,482.301152 C398.037701,477.743009 396.581618,472.686163 397.558989,468.005006 C398.37014,464.101826 400.487778,460.507841 403.320159,457.631988 C406.361976,454.540031 409.350604,453.436236 413.545985,452.435506 C414.260729,452.265947 414.978798,452.103037 415.700191,451.973374 C416.03263,451.910205 416.391664,451.85701 416.740725,451.800491 C417.601742,451.657529 416.504693,451.820439 416.760672,451.800491 C418.456111,451.607659 420.15155,451.371606 421.837017,451.105631 C424.054385,450.75654 425.287734,447.983752 424.73921,445.992266 C424.074332,443.628415 421.853639,442.737399 419.626297,443.089816 L418.37965,443.279323 C418.234474,443.31311 418.086439,443.333147 417.937506,443.339167 C416.98673,443.458856 416.039279,443.57522 415.091827,443.711532 C413.605961,443.927074 412.132358,444.220045 410.677036,444.589249 C405.820101,445.806083 401.651314,447.727751 397.99116,451.218671 C394.348238,454.713801 391.620804,459.051363 390.04919,463.84915 C388.290587,469.28501 389.028602,475.083261 390.182165,480.559017 C392.509239,491.613595 395.47792,502.568433 398.719202,513.390283 C401.687883,523.297845 404.829432,533.208731 408.895162,542.727305 C412.495478,551.158706 417.166247,559.35073 423.761839,565.810593 C430.649946,572.555776 439.492293,576.952906 449.027211,578.374579 C468.943637,581.340198 488.255024,573.473993 503.387652,560.816916 C519.886605,547.00285 529.76337,527.852663 540.288392,509.503726 C546.029616,499.509722 551.734271,489.499095 557.515387,479.528365 C562.87098,470.295714 568.485877,461.176103 575.646615,453.220131 C582.371858,445.756213 590.104392,438.707881 594.133553,429.302346 C598.162715,419.896812 598.455262,409.021767 591.686802,400.846366 C586.427615,394.482919 577.61133,391.856418 569.599548,392.006028 C560.188197,392.19886 551.674432,396.231703 544.164632,401.670888 C536.186094,407.449191 529.16498,414.427705 521.113305,420.109592 C513.096337,425.837833 504.375803,430.510799 495.166433,434.013425 C485.524065,437.59264 475.41793,439.769229 465.157156,440.476613 C454.299695,441.254589 443.382395,441.474019 432.504987,441.989345 C428.183279,442.192151 423.884841,442.401606 419.619648,443.063218 C417.398955,443.395687 416.172254,446.191747 416.717454,448.176584 C417.375684,450.54376 419.596377,451.421477 421.823719,451.075709 Z" id="Shape" fill="#F5988E" fill-rule="nonzero"></path>
            <path d="M66.0397368,183.147771 C84.3364488,184.622872 97.9692204,200.019001 109.535602,214.274775 C118.238588,225.00196 127.300624,236.557531 128.786603,250.29212 C130.67135,267.713137 119.793411,284.032991 107.13823,296.151061 C99.8110718,303.166925 91.5036761,309.502707 81.8358099,312.57367 C71.3243356,315.912641 59.9973204,315.16741 49.0214115,314.084258 C36.834901,312.881931 23.8958687,310.966155 14.6686064,302.914278 C3.17742391,292.886772 0.58675776,276.183444 0.107495114,260.938268 C-0.40883757,244.511421 0.758868655,227.616357 7.50190873,212.628594 C14.2444192,197.640832 27.4169928,184.78124 43.6118336,182 L66.0397368,183.147771 Z" id="Fill-1" fill="#FFA844"></path>
            <path d="M37.2280926,771.569571 C45.8800262,772.301575 52.3265306,779.94176 57.7959049,787.016054 C61.9112704,792.339318 66.1964191,798.073662 66.8990913,804.889323 C67.7903281,813.534338 62.6464969,821.632913 56.6622637,827.646391 C53.1974836,831.127948 49.2691802,834.27202 44.6975535,835.795956 C39.7270114,837.452889 34.3708259,837.083076 29.1806674,836.545571 C23.4180539,835.948928 17.2995968,834.998242 12.9363178,831.002574 C7.50250278,826.026519 6.2774591,817.737649 6.05083102,810.172373 C5.80667371,802.020705 6.35884487,793.636688 9.54741421,786.199152 C12.7357331,778.761616 18.9646245,772.380164 26.62265,771 L37.2280926,771.569571 Z" id="Fill-1-Copy-4" fill="#FECF0A"></path>
            <path d="M1059.03974,836.147771 C1077.33645,837.622872 1090.96922,853.019001 1102.5356,867.274775 C1111.23859,878.00196 1120.30062,889.557531 1121.7866,903.29212 C1123.67135,920.713137 1112.79341,937.032991 1100.13823,949.151061 C1092.81107,956.166925 1084.50368,962.502707 1074.83581,965.57367 C1064.32434,968.912641 1052.99732,968.16741 1042.02141,967.084258 C1029.8349,965.881931 1016.89587,963.966155 1007.66861,955.914278 C996.177424,945.886772 993.586758,929.183444 993.107495,913.938268 C992.591162,897.511421 993.758869,880.616357 1000.50191,865.628594 C1007.24442,850.640832 1020.41699,837.78124 1036.61183,835 L1059.03974,836.147771 Z" id="Fill-1-Copy-2" fill="#FFA844" transform="translate(1057.500000, 901.500000) rotate(-90.000000) translate(-1057.500000, -901.500000) "></path>
            <path d="M517.7639,506.569571 C526.841339,507.301575 533.604885,514.94176 539.343244,522.016054 C543.661005,527.339318 548.156899,533.073662 548.894129,539.889323 C549.829197,548.534338 544.43239,556.632913 538.15385,562.646391 C534.518671,566.127948 530.397173,569.27202 525.600712,570.795956 C520.385717,572.452889 514.766112,572.083076 509.3207,571.545571 C503.27468,570.948928 496.855315,569.998242 492.277448,566.002574 C486.576396,561.026519 485.291105,552.737649 485.053331,545.172373 C484.797166,537.020705 485.376493,528.636688 488.721877,521.199152 C492.066999,513.761616 498.602229,507.380164 506.636879,506 L517.7639,506.569571 Z" id="Fill-1-Copy" fill="#FFA844"></path>
            <g id="more_patterns-14-copy-2" transform="translate(65.000000, 146.000000)" fill="#353435" fill-rule="nonzero">
                <ellipse id="Oval" transform="translate(4.687500, 6.893617) rotate(-23.570000) translate(-4.687500, -6.893617) " cx="4.6875" cy="6.89361702" rx="3.4125" ry="3.38297872"></ellipse>
                <ellipse id="Oval" transform="translate(31.987500, 18.170213) rotate(-23.570000) translate(-31.987500, -18.170213) " cx="31.9875" cy="18.1702128" rx="3.4125" ry="3.38297872"></ellipse>
                <ellipse id="Oval" transform="translate(20.612500, 4.638298) rotate(-23.570000) translate(-20.612500, -4.638298) " cx="20.6125" cy="4.63829787" rx="3.4125" ry="3.38297872"></ellipse>
                <ellipse id="Oval" transform="translate(38.812500, 6.893617) rotate(-23.570000) translate(-38.812500, -6.893617) " cx="38.8125" cy="6.89361702" rx="3.4125" ry="3.38297872"></ellipse>
                <ellipse id="Oval" transform="translate(11.512500, 40.723404) rotate(-23.570000) translate(-11.512500, -40.723404) " cx="11.5125" cy="40.7234043" rx="3.4125" ry="3.38297872"></ellipse>
                <ellipse id="Oval" transform="translate(29.712500, 42.978723) rotate(-23.570000) translate(-29.712500, -42.978723) " cx="29.7125" cy="42.9787234" rx="3.4125" ry="3.38297872"></ellipse>
                <ellipse id="Oval" transform="translate(25.162500, 29.446809) rotate(-23.570000) translate(-25.162500, -29.446809) " cx="25.1625" cy="29.4468085" rx="3.4125" ry="3.38297872"></ellipse>
                <ellipse id="Oval" transform="translate(4.687500, 22.680851) rotate(-23.570000) translate(-4.687500, -22.680851) " cx="4.6875" cy="22.6808511" rx="3.4125" ry="3.38297872"></ellipse>
                <ellipse id="Oval" transform="translate(16.062500, 20.425532) rotate(-23.570000) translate(-16.062500, -20.425532) " cx="16.0625" cy="20.4255319" rx="3.4125" ry="3.38297872"></ellipse>
                <ellipse id="Oval" transform="translate(43.362500, 22.680851) rotate(-23.570000) translate(-43.362500, -22.680851) " cx="43.3625" cy="22.6808511" rx="3.4125" ry="3.38297872"></ellipse>
                <ellipse id="Oval" transform="translate(41.087500, 38.468085) rotate(-23.570000) translate(-41.087500, -38.468085) " cx="41.0875" cy="38.4680851" rx="3.4125" ry="3.38297872"></ellipse>
                <ellipse id="Oval" transform="translate(54.737500, 18.170213) rotate(-23.570000) translate(-54.737500, -18.170213) " cx="54.7375" cy="18.1702128" rx="3.4125" ry="3.38297872"></ellipse>
                <ellipse id="Oval" transform="translate(75.212500, 27.191489) rotate(-23.570000) translate(-75.212500, -27.191489) " cx="75.2125" cy="27.1914894" rx="3.4125" ry="3.38297872"></ellipse>
                <ellipse id="Oval" transform="translate(66.112500, 33.957447) rotate(-23.570000) translate(-66.112500, -33.957447) " cx="66.1125" cy="33.9574468" rx="3.4125" ry="3.38297872"></ellipse>
                <ellipse id="Oval" transform="translate(52.462500, 31.702128) rotate(-23.570000) translate(-52.462500, -31.702128) " cx="52.4625" cy="31.7021277" rx="3.4125" ry="3.38297872"></ellipse>
                <ellipse id="Oval" transform="translate(72.937500, 15.914894) rotate(-23.570000) translate(-72.937500, -15.914894) " cx="72.9375" cy="15.9148936" rx="3.4125" ry="3.38297872"></ellipse>
                <ellipse id="Oval" transform="translate(50.187500, 9.148936) rotate(-23.570000) translate(-50.187500, -9.148936) " cx="50.1875" cy="9.14893617" rx="3.4125" ry="3.38297872"></ellipse>
                <ellipse id="Oval" transform="translate(61.562500, 6.893617) rotate(-23.570000) translate(-61.562500, -6.893617) " cx="61.5625" cy="6.89361702" rx="3.4125" ry="3.38297872"></ellipse>
                <ellipse id="Oval" transform="translate(22.887500, 63.276596) rotate(-23.570000) translate(-22.887500, -63.276596) " cx="22.8875" cy="63.2765957" rx="3.4125" ry="3.38297872"></ellipse>
                <ellipse id="Oval" transform="translate(50.187500, 74.553191) rotate(-23.570000) translate(-50.187500, -74.553191) " cx="50.1875" cy="74.5531915" rx="3.4125" ry="3.38297872"></ellipse>
                <ellipse id="Oval" transform="translate(38.812500, 61.021277) rotate(-23.570000) translate(-38.812500, -61.021277) " cx="38.8125" cy="61.0212766" rx="3.4125" ry="3.38297872"></ellipse>
                <ellipse id="Oval" transform="translate(50.187500, 52.000000) rotate(-23.570000) translate(-50.187500, -52.000000) " cx="50.1875" cy="52" rx="3.4125" ry="3.38297872"></ellipse>
                <ellipse id="Oval" transform="translate(57.012500, 63.276596) rotate(-23.570000) translate(-57.012500, -63.276596) " cx="57.0125" cy="63.2765957" rx="3.4125" ry="3.38297872"></ellipse>
                <ellipse id="Oval" transform="translate(29.712500, 97.106383) rotate(-23.570000) translate(-29.712500, -97.106383) " cx="29.7125" cy="97.106383" rx="3.4125" ry="3.38297872"></ellipse>
                <ellipse id="Oval" transform="translate(45.637500, 99.361702) rotate(-23.570000) translate(-45.637500, -99.361702) " cx="45.6375" cy="99.3617021" rx="3.4125" ry="3.38297872"></ellipse>
                <ellipse id="Oval" transform="translate(43.362500, 88.085106) rotate(-23.570000) translate(-43.362500, -88.085106) " cx="43.3625" cy="88.0851064" rx="3.4125" ry="3.38297872"></ellipse>
                <ellipse id="Oval" transform="translate(22.887500, 79.063830) rotate(-23.570000) translate(-22.887500, -79.063830) " cx="22.8875" cy="79.0638298" rx="3.4125" ry="3.38297872"></ellipse>
                <ellipse id="Oval" transform="translate(9.237500, 52.000000) rotate(-23.570000) translate(-9.237500, -52.000000) " cx="9.2375" cy="52" rx="3.4125" ry="3.38297872"></ellipse>
                <ellipse id="Oval" transform="translate(31.987500, 76.808511) rotate(-23.570000) translate(-31.987500, -76.808511) " cx="31.9875" cy="76.8085106" rx="3.4125" ry="3.38297872"></ellipse>
                <ellipse id="Oval" transform="translate(59.287500, 79.063830) rotate(-23.570000) translate(-59.287500, -79.063830) " cx="59.2875" cy="79.0638298" rx="3.4125" ry="3.38297872"></ellipse>
                <ellipse id="Oval" transform="translate(59.287500, 92.595745) rotate(-23.570000) translate(-59.287500, -92.595745) " cx="59.2875" cy="92.5957447" rx="3.4125" ry="3.38297872"></ellipse>
                <ellipse id="Oval" transform="translate(72.937500, 74.553191) rotate(-23.570000) translate(-72.937500, -74.553191) " cx="72.9375" cy="74.5531915" rx="3.4125" ry="3.38297872"></ellipse>
                <ellipse id="Oval" transform="translate(70.662500, 47.489362) rotate(-23.570000) translate(-70.662500, -47.489362) " cx="70.6625" cy="47.4893617" rx="3.4125" ry="3.38297872"></ellipse>
                <ellipse id="Oval" transform="translate(59.287500, 42.978723) rotate(-23.570000) translate(-59.287500, -42.978723) " cx="59.2875" cy="42.9787234" rx="3.4125" ry="3.38297872"></ellipse>
                <ellipse id="Oval" transform="translate(84.312500, 45.234043) rotate(-23.570000) translate(-84.312500, -45.234043) " cx="84.3125" cy="45.2340426" rx="3.4125" ry="3.38297872"></ellipse>
                <ellipse id="Oval" transform="translate(70.662500, 88.085106) rotate(-23.570000) translate(-70.662500, -88.085106) " cx="70.6625" cy="88.0851064" rx="3.4125" ry="3.38297872"></ellipse>
                <ellipse id="Oval" transform="translate(68.387500, 63.276596) rotate(-23.570000) translate(-68.387500, -63.276596) " cx="68.3875" cy="63.2765957" rx="3.4125" ry="3.38297872"></ellipse>
                <ellipse id="Oval" transform="translate(79.762500, 63.276596) rotate(-23.570000) translate(-79.762500, -63.276596) " cx="79.7625" cy="63.2765957" rx="3.4125" ry="3.38297872"></ellipse>
            </g>
            <g id="more_patterns-14-copy-4" transform="translate(991.000000, 921.500000) rotate(-90.000000) translate(-991.000000, -921.500000) translate(946.500000, 869.500000)" fill="#353435" fill-rule="nonzero">
                <ellipse id="Oval" transform="translate(4.687500, 6.893617) rotate(-23.570000) translate(-4.687500, -6.893617) " cx="4.6875" cy="6.89361702" rx="3.4125" ry="3.38297872"></ellipse>
                <ellipse id="Oval" transform="translate(31.987500, 18.170213) rotate(-23.570000) translate(-31.987500, -18.170213) " cx="31.9875" cy="18.1702128" rx="3.4125" ry="3.38297872"></ellipse>
                <ellipse id="Oval" transform="translate(20.612500, 4.638298) rotate(-23.570000) translate(-20.612500, -4.638298) " cx="20.6125" cy="4.63829787" rx="3.4125" ry="3.38297872"></ellipse>
                <ellipse id="Oval" transform="translate(38.812500, 6.893617) rotate(-23.570000) translate(-38.812500, -6.893617) " cx="38.8125" cy="6.89361702" rx="3.4125" ry="3.38297872"></ellipse>
                <ellipse id="Oval" transform="translate(11.512500, 40.723404) rotate(-23.570000) translate(-11.512500, -40.723404) " cx="11.5125" cy="40.7234043" rx="3.4125" ry="3.38297872"></ellipse>
                <ellipse id="Oval" transform="translate(29.712500, 42.978723) rotate(-23.570000) translate(-29.712500, -42.978723) " cx="29.7125" cy="42.9787234" rx="3.4125" ry="3.38297872"></ellipse>
                <ellipse id="Oval" transform="translate(25.162500, 29.446809) rotate(-23.570000) translate(-25.162500, -29.446809) " cx="25.1625" cy="29.4468085" rx="3.4125" ry="3.38297872"></ellipse>
                <ellipse id="Oval" transform="translate(4.687500, 22.680851) rotate(-23.570000) translate(-4.687500, -22.680851) " cx="4.6875" cy="22.6808511" rx="3.4125" ry="3.38297872"></ellipse>
                <ellipse id="Oval" transform="translate(16.062500, 20.425532) rotate(-23.570000) translate(-16.062500, -20.425532) " cx="16.0625" cy="20.4255319" rx="3.4125" ry="3.38297872"></ellipse>
                <ellipse id="Oval" transform="translate(43.362500, 22.680851) rotate(-23.570000) translate(-43.362500, -22.680851) " cx="43.3625" cy="22.6808511" rx="3.4125" ry="3.38297872"></ellipse>
                <ellipse id="Oval" transform="translate(41.087500, 38.468085) rotate(-23.570000) translate(-41.087500, -38.468085) " cx="41.0875" cy="38.4680851" rx="3.4125" ry="3.38297872"></ellipse>
                <ellipse id="Oval" transform="translate(54.737500, 18.170213) rotate(-23.570000) translate(-54.737500, -18.170213) " cx="54.7375" cy="18.1702128" rx="3.4125" ry="3.38297872"></ellipse>
                <ellipse id="Oval" transform="translate(75.212500, 27.191489) rotate(-23.570000) translate(-75.212500, -27.191489) " cx="75.2125" cy="27.1914894" rx="3.4125" ry="3.38297872"></ellipse>
                <ellipse id="Oval" transform="translate(66.112500, 33.957447) rotate(-23.570000) translate(-66.112500, -33.957447) " cx="66.1125" cy="33.9574468" rx="3.4125" ry="3.38297872"></ellipse>
                <ellipse id="Oval" transform="translate(52.462500, 31.702128) rotate(-23.570000) translate(-52.462500, -31.702128) " cx="52.4625" cy="31.7021277" rx="3.4125" ry="3.38297872"></ellipse>
                <ellipse id="Oval" transform="translate(72.937500, 15.914894) rotate(-23.570000) translate(-72.937500, -15.914894) " cx="72.9375" cy="15.9148936" rx="3.4125" ry="3.38297872"></ellipse>
                <ellipse id="Oval" transform="translate(50.187500, 9.148936) rotate(-23.570000) translate(-50.187500, -9.148936) " cx="50.1875" cy="9.14893617" rx="3.4125" ry="3.38297872"></ellipse>
                <ellipse id="Oval" transform="translate(61.562500, 6.893617) rotate(-23.570000) translate(-61.562500, -6.893617) " cx="61.5625" cy="6.89361702" rx="3.4125" ry="3.38297872"></ellipse>
                <ellipse id="Oval" transform="translate(22.887500, 63.276596) rotate(-23.570000) translate(-22.887500, -63.276596) " cx="22.8875" cy="63.2765957" rx="3.4125" ry="3.38297872"></ellipse>
                <ellipse id="Oval" transform="translate(50.187500, 74.553191) rotate(-23.570000) translate(-50.187500, -74.553191) " cx="50.1875" cy="74.5531915" rx="3.4125" ry="3.38297872"></ellipse>
                <ellipse id="Oval" transform="translate(38.812500, 61.021277) rotate(-23.570000) translate(-38.812500, -61.021277) " cx="38.8125" cy="61.0212766" rx="3.4125" ry="3.38297872"></ellipse>
                <ellipse id="Oval" transform="translate(50.187500, 52.000000) rotate(-23.570000) translate(-50.187500, -52.000000) " cx="50.1875" cy="52" rx="3.4125" ry="3.38297872"></ellipse>
                <ellipse id="Oval" transform="translate(57.012500, 63.276596) rotate(-23.570000) translate(-57.012500, -63.276596) " cx="57.0125" cy="63.2765957" rx="3.4125" ry="3.38297872"></ellipse>
                <ellipse id="Oval" transform="translate(29.712500, 97.106383) rotate(-23.570000) translate(-29.712500, -97.106383) " cx="29.7125" cy="97.106383" rx="3.4125" ry="3.38297872"></ellipse>
                <ellipse id="Oval" transform="translate(45.637500, 99.361702) rotate(-23.570000) translate(-45.637500, -99.361702) " cx="45.6375" cy="99.3617021" rx="3.4125" ry="3.38297872"></ellipse>
                <ellipse id="Oval" transform="translate(43.362500, 88.085106) rotate(-23.570000) translate(-43.362500, -88.085106) " cx="43.3625" cy="88.0851064" rx="3.4125" ry="3.38297872"></ellipse>
                <ellipse id="Oval" transform="translate(22.887500, 79.063830) rotate(-23.570000) translate(-22.887500, -79.063830) " cx="22.8875" cy="79.0638298" rx="3.4125" ry="3.38297872"></ellipse>
                <ellipse id="Oval" transform="translate(9.237500, 52.000000) rotate(-23.570000) translate(-9.237500, -52.000000) " cx="9.2375" cy="52" rx="3.4125" ry="3.38297872"></ellipse>
                <ellipse id="Oval" transform="translate(31.987500, 76.808511) rotate(-23.570000) translate(-31.987500, -76.808511) " cx="31.9875" cy="76.8085106" rx="3.4125" ry="3.38297872"></ellipse>
                <ellipse id="Oval" transform="translate(59.287500, 79.063830) rotate(-23.570000) translate(-59.287500, -79.063830) " cx="59.2875" cy="79.0638298" rx="3.4125" ry="3.38297872"></ellipse>
                <ellipse id="Oval" transform="translate(59.287500, 92.595745) rotate(-23.570000) translate(-59.287500, -92.595745) " cx="59.2875" cy="92.5957447" rx="3.4125" ry="3.38297872"></ellipse>
                <ellipse id="Oval" transform="translate(72.937500, 74.553191) rotate(-23.570000) translate(-72.937500, -74.553191) " cx="72.9375" cy="74.5531915" rx="3.4125" ry="3.38297872"></ellipse>
                <ellipse id="Oval" transform="translate(70.662500, 47.489362) rotate(-23.570000) translate(-70.662500, -47.489362) " cx="70.6625" cy="47.4893617" rx="3.4125" ry="3.38297872"></ellipse>
                <ellipse id="Oval" transform="translate(59.287500, 42.978723) rotate(-23.570000) translate(-59.287500, -42.978723) " cx="59.2875" cy="42.9787234" rx="3.4125" ry="3.38297872"></ellipse>
                <ellipse id="Oval" transform="translate(84.312500, 45.234043) rotate(-23.570000) translate(-84.312500, -45.234043) " cx="84.3125" cy="45.2340426" rx="3.4125" ry="3.38297872"></ellipse>
                <ellipse id="Oval" transform="translate(70.662500, 88.085106) rotate(-23.570000) translate(-70.662500, -88.085106) " cx="70.6625" cy="88.0851064" rx="3.4125" ry="3.38297872"></ellipse>
                <ellipse id="Oval" transform="translate(68.387500, 63.276596) rotate(-23.570000) translate(-68.387500, -63.276596) " cx="68.3875" cy="63.2765957" rx="3.4125" ry="3.38297872"></ellipse>
                <ellipse id="Oval" transform="translate(79.762500, 63.276596) rotate(-23.570000) translate(-79.762500, -63.276596) " cx="79.7625" cy="63.2765957" rx="3.4125" ry="3.38297872"></ellipse>
            </g>
            <g id="more_patterns-14-copy-3" transform="translate(983.000000, 298.000000)" fill="#353435" fill-rule="nonzero">
                <ellipse id="Oval" transform="translate(3.500000, 4.000000) rotate(-23.570000) translate(-3.500000, -4.000000) " cx="3.5" cy="4" rx="2.5" ry="2"></ellipse>
                <ellipse id="Oval" transform="translate(21.500000, 12.000000) rotate(-23.570000) translate(-21.500000, -12.000000) " cx="21.5" cy="12" rx="2.5" ry="2"></ellipse>
                <ellipse id="Oval" transform="translate(13.500000, 3.000000) rotate(-23.570000) translate(-13.500000, -3.000000) " cx="13.5" cy="3" rx="2.5" ry="2"></ellipse>
                <ellipse id="Oval" transform="translate(25.500000, 4.000000) rotate(-23.570000) translate(-25.500000, -4.000000) " cx="25.5" cy="4" rx="2.5" ry="2"></ellipse>
                <ellipse id="Oval" transform="translate(7.500000, 27.000000) rotate(-23.570000) translate(-7.500000, -27.000000) " cx="7.5" cy="27" rx="2.5" ry="2"></ellipse>
                <ellipse id="Oval" transform="translate(19.500000, 28.000000) rotate(-23.570000) translate(-19.500000, -28.000000) " cx="19.5" cy="28" rx="2.5" ry="2"></ellipse>
                <ellipse id="Oval" transform="translate(16.500000, 19.000000) rotate(-23.570000) translate(-16.500000, -19.000000) " cx="16.5" cy="19" rx="2.5" ry="2"></ellipse>
                <ellipse id="Oval" transform="translate(3.500000, 15.000000) rotate(-23.570000) translate(-3.500000, -15.000000) " cx="3.5" cy="15" rx="2.5" ry="2"></ellipse>
                <ellipse id="Oval" transform="translate(10.500000, 13.000000) rotate(-23.570000) translate(-10.500000, -13.000000) " cx="10.5" cy="13" rx="2.5" ry="2"></ellipse>
                <ellipse id="Oval" transform="translate(28.500000, 15.000000) rotate(-23.570000) translate(-28.500000, -15.000000) " cx="28.5" cy="15" rx="2.5" ry="2"></ellipse>
                <ellipse id="Oval" transform="translate(27.500000, 25.000000) rotate(-23.570000) translate(-27.500000, -25.000000) " cx="27.5" cy="25" rx="2.5" ry="2"></ellipse>
                <ellipse id="Oval" transform="translate(36.500000, 12.000000) rotate(-23.570000) translate(-36.500000, -12.000000) " cx="36.5" cy="12" rx="2.5" ry="2"></ellipse>
                <ellipse id="Oval" transform="translate(50.500000, 18.000000) rotate(-23.570000) translate(-50.500000, -18.000000) " cx="50.5" cy="18" rx="2.5" ry="2"></ellipse>
                <ellipse id="Oval" transform="translate(44.500000, 22.000000) rotate(-23.570000) translate(-44.500000, -22.000000) " cx="44.5" cy="22" rx="2.5" ry="2"></ellipse>
                <ellipse id="Oval" transform="translate(35.500000, 21.000000) rotate(-23.570000) translate(-35.500000, -21.000000) " cx="35.5" cy="21" rx="2.5" ry="2"></ellipse>
                <ellipse id="Oval" transform="translate(48.500000, 10.000000) rotate(-23.570000) translate(-48.500000, -10.000000) " cx="48.5" cy="10" rx="2.5" ry="2"></ellipse>
                <ellipse id="Oval" transform="translate(33.500000, 6.000000) rotate(-23.570000) translate(-33.500000, -6.000000) " cx="33.5" cy="6" rx="2.5" ry="2"></ellipse>
                <ellipse id="Oval" transform="translate(41.500000, 4.000000) rotate(-23.570000) translate(-41.500000, -4.000000) " cx="41.5" cy="4" rx="2.5" ry="2"></ellipse>
                <ellipse id="Oval" transform="translate(15.500000, 42.000000) rotate(-23.570000) translate(-15.500000, -42.000000) " cx="15.5" cy="42" rx="2.5" ry="2"></ellipse>
                <ellipse id="Oval" transform="translate(33.500000, 49.000000) rotate(-23.570000) translate(-33.500000, -49.000000) " cx="33.5" cy="49" rx="2.5" ry="2"></ellipse>
                <ellipse id="Oval" transform="translate(25.500000, 40.000000) rotate(-23.570000) translate(-25.500000, -40.000000) " cx="25.5" cy="40" rx="2.5" ry="2"></ellipse>
                <ellipse id="Oval" transform="translate(33.500000, 34.000000) rotate(-23.570000) translate(-33.500000, -34.000000) " cx="33.5" cy="34" rx="2.5" ry="2"></ellipse>
                <ellipse id="Oval" transform="translate(38.500000, 42.000000) rotate(-23.570000) translate(-38.500000, -42.000000) " cx="38.5" cy="42" rx="2.5" ry="2"></ellipse>
                <ellipse id="Oval" transform="translate(19.500000, 64.000000) rotate(-23.570000) translate(-19.500000, -64.000000) " cx="19.5" cy="64" rx="2.5" ry="2"></ellipse>
                <ellipse id="Oval" transform="translate(30.500000, 66.000000) rotate(-23.570000) translate(-30.500000, -66.000000) " cx="30.5" cy="66" rx="2.5" ry="2"></ellipse>
                <ellipse id="Oval" transform="translate(28.500000, 58.000000) rotate(-23.570000) translate(-28.500000, -58.000000) " cx="28.5" cy="58" rx="2.5" ry="2"></ellipse>
                <ellipse id="Oval" transform="translate(15.500000, 52.000000) rotate(-23.570000) translate(-15.500000, -52.000000) " cx="15.5" cy="52" rx="2.5" ry="2"></ellipse>
                <ellipse id="Oval" transform="translate(6.500000, 34.000000) rotate(-23.570000) translate(-6.500000, -34.000000) " cx="6.5" cy="34" rx="2.5" ry="2"></ellipse>
                <ellipse id="Oval" transform="translate(21.500000, 51.000000) rotate(-23.570000) translate(-21.500000, -51.000000) " cx="21.5" cy="51" rx="2.5" ry="2"></ellipse>
                <ellipse id="Oval" transform="translate(39.500000, 52.000000) rotate(-23.570000) translate(-39.500000, -52.000000) " cx="39.5" cy="52" rx="2.5" ry="2"></ellipse>
                <ellipse id="Oval" transform="translate(39.500000, 61.000000) rotate(-23.570000) translate(-39.500000, -61.000000) " cx="39.5" cy="61" rx="2.5" ry="2"></ellipse>
                <ellipse id="Oval" transform="translate(48.500000, 49.000000) rotate(-23.570000) translate(-48.500000, -49.000000) " cx="48.5" cy="49" rx="2.5" ry="2"></ellipse>
                <ellipse id="Oval" transform="translate(47.500000, 31.000000) rotate(-23.570000) translate(-47.500000, -31.000000) " cx="47.5" cy="31" rx="2.5" ry="2"></ellipse>
                <ellipse id="Oval" transform="translate(39.500000, 28.000000) rotate(-23.570000) translate(-39.500000, -28.000000) " cx="39.5" cy="28" rx="2.5" ry="2"></ellipse>
                <ellipse id="Oval" transform="translate(56.500000, 30.000000) rotate(-23.570000) translate(-56.500000, -30.000000) " cx="56.5" cy="30" rx="2.5" ry="2"></ellipse>
                <ellipse id="Oval" transform="translate(47.500000, 58.000000) rotate(-23.570000) translate(-47.500000, -58.000000) " cx="47.5" cy="58" rx="2.5" ry="2"></ellipse>
                <ellipse id="Oval" transform="translate(45.500000, 42.000000) rotate(-23.570000) translate(-45.500000, -42.000000) " cx="45.5" cy="42" rx="2.5" ry="2"></ellipse>
                <ellipse id="Oval" transform="translate(53.500000, 42.000000) rotate(-23.570000) translate(-53.500000, -42.000000) " cx="53.5" cy="42" rx="2.5" ry="2"></ellipse>
            </g>
            <path d="M810.242297,66.9735314 C811.132466,66.8378416 809.668967,67.0225305 810.642119,66.9132248 C811.106063,66.8604566 811.570007,66.8076883 812.037723,66.7624584 C813.169295,66.6493835 814.300867,66.5626928 815.432438,66.4835404 C818.053912,66.3026206 820.675386,66.1744691 823.300632,66.0538559 C828.988665,65.7900146 834.676698,65.4620975 840.368503,65.2359478 C852.57816,64.7534951 864.814221,64.5009613 876.842826,62.1376969 C898.602947,57.8634674 918.820359,47.5435025 936.005159,33.6880639 C944.137387,27.1334916 951.688741,19.7421654 960.835611,14.5520297 C964.784795,12.3169167 968.903716,10.6358706 973.384739,9.84434662 C973.656316,9.79534751 974.659643,9.64458104 974.516311,9.66342685 C974.372978,9.68227266 975.372533,9.58427445 975.647882,9.56165948 C976.736706,9.47371238 977.828044,9.4322516 978.921896,9.43727715 C979.927737,9.43727715 980.933579,9.48627625 981.93942,9.58427445 C982.836729,9.65748837 983.727035,9.79988405 984.602385,10.0101897 C985.556677,10.2137245 986.488338,10.4662583 987.431314,10.7640221 C987.891487,10.9110194 988.347887,11.0730933 988.800516,11.2389365 C988.800516,11.2389365 989.532265,11.5291619 989.128671,11.3595496 C989.30165,11.4502327 989.479162,11.5320049 989.66051,11.6045452 C990.517237,12.0118972 991.350836,12.4661424 992.157511,12.9652126 C992.557333,13.21649 992.948354,13.4790749 993.330574,13.7529674 C993.768115,14.0620386 993.394696,13.7868898 993.330574,13.7228141 C993.575748,13.9150413 993.81715,14.1185761 994.051008,14.3258799 C994.817647,15.0011803 995.534888,15.7304952 996.197222,16.5082246 C996.540465,16.9115249 996.268888,16.5685312 996.197222,16.4856096 C996.344326,16.6740677 996.480115,16.8625258 996.615903,17.0698297 C996.936515,17.5372058 997.24204,18.0121202 997.524932,18.5021112 C998.558194,20.3632644 999.239697,22.3986191 999.535358,24.5063859 C1000.90456,34.3062064 995.118457,43.7743408 988.838235,51.0601305 C985.243609,55.2250542 981.351003,59.1185983 977.684711,63.2194463 C973.707774,67.7023819 970.025003,72.4375275 966.659432,77.3952637 C959.937897,87.2214684 954.212145,97.6997381 948.275167,108.012165 L929.245905,141.109174 C923.569188,150.984378 917.964137,161.014117 910.722079,169.86034 C897.980583,185.426978 880.957975,198.215744 860.827317,201.792678 C851.318344,203.481263 841.062534,202.878197 832.028821,199.08642 C823.466596,195.49064 816.646992,188.871992 811.637901,181.231901 C806.327059,173.120665 802.762609,164.342287 799.605524,155.262376 C795.614848,143.785279 792.088117,132.131031 788.938576,120.393861 C787.331745,114.413458 785.835555,108.40667 784.450009,102.373499 C783.254315,97.2059779 781.602221,91.4730829 782.711161,86.1661031 C783.631506,81.7411072 786.034209,77.6666433 789.247872,74.4063184 C792.699166,70.900998 796.090108,69.6496363 800.850253,68.5151186 C801.661212,68.3228913 802.475944,68.1382024 803.294447,67.9912051 C803.671638,67.919591 804.079004,67.8592844 804.475054,67.7952087 C805.451977,67.6331347 804.207248,67.8178237 804.497685,67.7952087 C806.421357,67.5765973 808.345028,67.3089868 810.257384,67.0074539 C812.773245,66.6116919 814.172622,63.468211 813.550257,61.2104831 C812.795876,58.5306091 810.276244,57.5204737 807.749067,57.9200049 L806.334603,58.1348471 C806.169884,58.1731518 806.001921,58.1958671 805.832939,58.202692 C804.754175,58.3383818 803.679182,58.4703025 802.604189,58.6248381 C800.918301,58.8691965 799.24633,59.2013347 797.595099,59.6198968 C792.084345,60.99941 787.354376,63.1779855 783.201508,67.1356054 C779.068193,71.097999 775.973605,76.0154489 774.190427,81.4546509 C772.195089,87.6172304 773.032452,94.1906485 774.341303,100.398458 C776.981637,112.930921 780.349948,125.350309 784.027556,137.61893 C787.395867,148.851032 790.960317,160.086904 795.573357,170.878014 C799.658331,180.436608 804.957857,189.723822 812.441317,197.047304 C820.256669,204.694249 830.289332,209.67923 841.107797,211.290966 C863.705281,214.653058 885.616278,205.735222 902.78599,191.386023 C921.505955,175.725156 932.712286,154.014784 944.654138,133.21278 C951.168218,121.88268 957.640807,110.533734 964.20015,99.2300178 C970.276689,88.7630556 976.647437,78.4242448 984.772121,69.4046408 C992.402685,60.9428726 1001.17614,52.9522497 1005.74769,42.289291 C1010.31923,31.6263324 1010.65116,19.2974043 1002.97156,10.0290355 C997.004409,2.81485993 987.001317,-0.162777858 977.911025,0.00683442151 C967.232762,0.225445804 957.572913,4.79743902 949.052179,10.9637877 C939.999607,17.5145908 932.033343,25.4260613 922.897788,31.8675588 C913.801613,38.3616072 903.907161,43.659301 893.458069,47.6301933 C882.517689,51.687913 871.051113,54.1554894 859.409081,54.9574437 C847.090038,55.8394276 834.703102,56.0881923 822.361428,56.6724123 C817.457951,56.9023312 812.580878,57.1397884 807.741523,57.8898516 C805.221891,58.2667677 803.830058,61.4366328 804.44865,63.6868224 C805.195487,66.3704655 807.71512,67.3655242 810.242297,66.9735314 Z" id="Shape" fill="#FFA844" fill-rule="nonzero"></path>
            <path d="M872.065619,76.3620338 C872.065619,76.3620338 870.745502,47.363383 883.391014,34.5750246 C896.036526,21.7866662 910.996666,5.48679442 930.384327,25.1082712 C949.771989,44.729748 913.459939,64.8385369 904.392545,74.0186361 C895.32515,83.1987354 870.561465,92.1459281 872.065619,76.3620338 Z" id="Shape" fill="#274885" fill-rule="nonzero"></path>
            <g id="Group" transform="translate(335.753680, 838.433601) rotate(84.000000) translate(-335.753680, -838.433601) translate(217.753680, 732.433601)" fill-rule="nonzero">
                <path d="M37.2422966,66.9735314 C38.1324662,66.8378416 36.668967,67.0225305 37.6421185,66.9132248 C38.1060628,66.8604566 38.5700072,66.8076883 39.0377234,66.7624584 C40.169295,66.6493835 41.3008665,66.5626928 42.4324381,66.4835404 C45.0539122,66.3026206 47.6753863,66.1744691 50.3006323,66.0538559 C55.9886653,65.7900146 61.6766983,65.4620975 67.3685032,65.2359478 C79.5781603,64.7534951 91.8142207,64.5009613 103.842826,62.1376969 C125.602947,57.8634674 145.820359,47.5435025 163.005159,33.6880639 C171.137387,27.1334916 178.688741,19.7421654 187.835611,14.5520297 C191.784795,12.3169167 195.903716,10.6358706 200.384739,9.84434662 C200.656316,9.79534751 201.659643,9.64458104 201.516311,9.66342685 C201.372978,9.68227266 202.372533,9.58427445 202.647882,9.56165948 C203.736706,9.47371238 204.828044,9.4322516 205.921896,9.43727715 C206.927737,9.43727715 207.933579,9.48627625 208.93942,9.58427445 C209.836729,9.65748837 210.727035,9.79988405 211.602385,10.0101897 C212.556677,10.2137245 213.488338,10.4662583 214.431314,10.7640221 C214.891487,10.9110194 215.347887,11.0730933 215.800516,11.2389365 C215.800516,11.2389365 216.532265,11.5291619 216.128671,11.3595496 C216.30165,11.4502327 216.479162,11.5320049 216.66051,11.6045452 C217.517237,12.0118972 218.350836,12.4661424 219.157511,12.9652126 C219.557333,13.21649 219.948354,13.4790749 220.330574,13.7529674 C220.768115,14.0620386 220.394696,13.7868898 220.330574,13.7228141 C220.575748,13.9150413 220.81715,14.1185761 221.051008,14.3258799 C221.817647,15.0011803 222.534888,15.7304952 223.197222,16.5082246 C223.540465,16.9115249 223.268888,16.5685312 223.197222,16.4856096 C223.344326,16.6740677 223.480115,16.8625258 223.615903,17.0698297 C223.936515,17.5372058 224.24204,18.0121202 224.524932,18.5021112 C225.558194,20.3632644 226.239697,22.3986191 226.535358,24.5063859 C227.904559,34.3062064 222.118457,43.7743408 215.838235,51.0601305 C212.243609,55.2250542 208.351003,59.1185983 204.684711,63.2194463 C200.707774,67.7023819 197.025003,72.4375275 193.659432,77.3952637 C186.937897,87.2214684 181.212145,97.6997381 175.275167,108.012165 L156.245905,141.109174 C150.569188,150.984378 144.964137,161.014117 137.722079,169.86034 C124.980583,185.426978 107.957975,198.215744 87.8273169,201.792678 C78.3183439,203.481263 68.0625338,202.878197 59.0288209,199.08642 C50.4665961,195.49064 43.6469916,188.871992 38.6379015,181.231901 C33.327059,173.120665 29.7626086,164.342287 26.605524,155.262376 C22.6148483,143.785279 19.0881169,132.131031 15.9385761,120.393861 C14.3317445,114.413458 12.8355555,108.40667 11.450009,102.373499 C10.254315,97.2059779 8.60222056,91.4730829 9.71116068,86.1661031 C10.6315055,81.7411072 13.0342091,77.6666433 16.2478723,74.4063184 C19.6991656,70.900998 23.0901083,69.6496363 27.8502527,68.5151186 C28.6612123,68.3228913 29.4759438,68.1382024 30.2944472,67.9912051 C30.6716377,67.919591 31.0790035,67.8592844 31.4750535,67.7952087 C32.451977,67.6331347 31.2072483,67.8178237 31.497685,67.7952087 C33.4213566,67.5765973 35.3450283,67.3089868 37.2573842,67.0074539 C39.7732449,66.6116919 41.1726218,63.468211 40.5502574,61.2104831 C39.7958764,58.5306091 37.2762437,57.5204737 34.7490672,57.9200049 L33.3346028,58.1348471 C33.1698844,58.1731518 33.0019214,58.1958671 32.8329394,58.202692 C31.7541745,58.3383818 30.6791816,58.4703025 29.6041886,58.6248381 C27.9183015,58.8691965 26.2463296,59.2013347 24.5950985,59.6198968 C19.084345,60.99941 14.354376,63.1779855 10.2015084,67.1356054 C6.06819272,71.097999 2.97360503,76.0154489 1.19042688,81.4546509 C-0.804910956,87.6172304 0.0324519932,94.1906485 1.34130309,100.398458 C3.98163671,112.930921 7.34994804,125.350309 11.0275556,137.61893 C14.3958669,148.851032 17.9603173,160.086904 22.5733573,170.878014 C26.6583306,180.436608 31.9578574,189.723822 39.4413173,197.047304 C47.256669,204.694249 57.2893325,209.67923 68.1077966,211.290966 C90.7052805,214.653058 112.616278,205.735222 129.78599,191.386023 C148.505955,175.725156 159.712286,154.014784 171.654138,133.21278 C178.168218,121.88268 184.640807,110.533734 191.20015,99.2300178 C197.276689,88.7630556 203.647437,78.4242448 211.772121,69.4046408 C219.402685,60.9428726 228.176137,52.9522497 232.747686,42.289291 C237.319235,31.6263324 237.651162,19.2974043 229.971563,10.0290355 C224.004409,2.81485993 214.001317,-0.162777858 204.911025,0.00683442151 C194.232762,0.225445804 184.572913,4.79743902 176.052179,10.9637877 C166.999607,17.5145908 159.033343,25.4260613 149.897788,31.8675588 C140.801613,38.3616072 130.907161,43.659301 120.458069,47.6301933 C109.517689,51.687913 98.0511125,54.1554894 86.4090805,54.9574437 C74.0900382,55.8394276 61.7031016,56.0881923 49.3614279,56.6724123 C44.4579512,56.9023312 39.5808778,57.1397884 34.7415234,57.8898516 C32.2218908,58.2667677 30.8300578,61.4366328 31.4486502,63.6868224 C32.1954874,66.3704655 34.7151201,67.3655242 37.2422966,66.9735314 Z" id="Shape" fill="#FFA844"></path>
                <path d="M99.0656187,76.3620338 C99.0656187,76.3620338 97.7455023,47.363383 110.391014,34.5750246 C123.036526,21.7866662 137.996666,5.48679442 157.384327,25.1082712 C176.771989,44.729748 140.459939,64.8385369 131.392545,74.0186361 C122.32515,83.1987354 97.5614646,92.1459281 99.0656187,76.3620338 Z" id="Shape" fill="#FECF0A"></path>
            </g>
            <path d="M431.409717,190.641252 C431.409717,190.641252 429.140767,140.629086 450.875241,118.573801 C472.609714,96.5185164 498.322454,68.4071433 531.644997,102.247082 C564.967541,136.08702 502.556206,170.767395 486.971621,186.59974 C471.387036,202.432085 428.824452,217.862751 431.409717,190.641252 Z" id="Shape-Copy" fill="#F5988E" fill-rule="nonzero" transform="translate(486.296935, 146.038614) rotate(87.000000) translate(-486.296935, -146.038614) "></path>
            <path d="M913.130576,425.587004 C913.130576,425.587004 910.861626,375.574838 932.596099,353.519553 C954.330573,331.464268 980.043313,303.352895 1013.36586,337.192833 C1046.6884,371.032772 984.277064,405.713147 968.69248,421.545492 C953.107895,437.377837 910.545311,452.808503 913.130576,425.587004 Z" id="Shape-Copy-2" fill="#1F4281" fill-rule="nonzero" transform="translate(968.017794, 380.984366) rotate(153.000000) translate(-968.017794, -380.984366) "></path>
            <path d="M58.1305757,1011.587 C58.1305757,1011.587 55.8616256,961.574838 77.5960993,939.519553 C99.3305729,917.464268 125.043313,889.352895 158.365856,923.192833 C191.688399,957.032772 129.277064,991.713147 113.69248,1007.54549 C98.1078947,1023.37784 55.5453108,1038.8085 58.1305757,1011.587 Z" id="Shape-Copy-3" fill="#1F4281" fill-rule="nonzero" transform="translate(113.017794, 966.984366) rotate(153.000000) translate(-113.017794, -966.984366) "></path>
            <path d="M124.089472,618.441057 L167.068946,538.680817 L179.402459,515.790823 C180.671983,513.434195 179.809402,510.065212 177.844249,508.696045 C175.75736,507.227301 173.169618,508.194017 171.896616,510.554794 L128.913663,590.306736 L116.597541,613.209177 C115.328017,615.565805 116.190598,618.934788 118.155751,620.303955 C120.24264,621.772699 122.830382,620.805983 124.103384,618.445206 L124.089472,618.441057 Z" id="Shape" fill="#1F4281" fill-rule="nonzero"></path>
            <path d="M101.010099,576.435738 L147.406443,489.819534 C148.671173,487.462573 147.801671,484.068717 145.866772,482.698682 C143.780655,481.220377 141.254631,482.203137 139.989901,484.564262 L93.593557,571.180466 C92.328827,573.537427 93.1983288,576.931283 95.1332282,578.301318 C97.2193454,579.779623 99.7453686,578.796863 101.010099,576.435738 Z" id="Shape" fill="#1F4281" fill-rule="nonzero"></path>
            <path d="M84.9135335,547.430904 C98.9839196,522.616201 112.148506,497.067573 124.407293,470.785021 C127.117915,464.95802 119.806013,459.71788 117.092003,465.532395 C104.846769,491.776101 91.6833115,517.324729 77.6016312,542.178278 C76.2937562,544.484106 77.2628035,547.959496 79.1195794,549.295544 C81.2270879,550.810565 83.6022702,549.740894 84.9135335,547.430904 Z" id="Shape" fill="#1F4281" fill-rule="nonzero"></path>
            <path d="M723.646837,615.056026 C716.637521,614.700465 710.326075,618.041512 707.950866,624.864603 C706.114364,630.173495 707.112197,636.512288 708.838508,641.704704 C710.63828,647.123943 713.374669,652.156969 715.853946,657.28195 C716.006988,657.594598 718.878053,663.755611 718.443414,663.884349 C718.432636,663.45623 718.47167,663.028311 718.559726,662.609233 C718.418927,662.327237 719.851399,662.811535 718.345467,662.817666 C718.161817,662.817666 716.753832,663.835306 716.435505,663.964043 C712.321741,665.643762 707.252995,664.644513 702.84539,663.614613 C697.072652,662.265933 691.385617,660.622997 685.582271,659.409185 C673.115073,656.791761 660.453148,655.210875 647.725842,654.682677 C637.51489,654.271943 624.120669,653.052001 616.211467,661.009209 C607.953329,669.321978 611.050896,681.999564 614.987132,691.532275 C618.849908,700.917857 623.728882,709.138671 631.338122,715.986284 C638.488237,722.466075 647.2055,726.1259 656.357401,728.860041 C675.052992,734.481582 694.703564,736.437167 712.431931,744.749936 C721.932768,749.206708 730.925506,754.662729 739.78969,760.259748 C749.639462,766.475934 759.158665,773.360329 769.375738,778.969609 C774.842392,781.967355 780.798781,785.179664 787.061253,785.890786 C793.357893,786.63256 799.491084,783.54956 802.659277,778.050055 C809.087034,767.211577 803.993801,753.730914 800.210607,742.929219 C798.170049,737.089028 796.017261,731.289707 793.752242,725.531255 C792.344257,721.963385 788.322317,715.048338 789.913952,711.695031 C789.491557,712.590064 790.740378,711.051343 789.913952,711.695031 C790.340048,711.388907 790.790478,711.118265 791.260721,710.885824 C790.997489,711.020691 790.036386,711.308818 791.658629,710.726434 C792.577613,710.414898 793.51631,710.165043 794.468477,709.97853 C795.019428,709.862053 795.570379,709.757837 796.127451,709.665882 C796.445778,709.610709 798.006805,709.377755 796.996729,709.518753 C803.773421,708.556287 810.078745,706.527137 812.300912,699.244269 C815.661711,688.246402 806.179239,678.53591 799.310721,671.197869 C792.585451,664.193633 785.429545,657.617237 777.884864,651.50715 C771.151023,645.953044 764.258019,640.631891 757.316041,635.35365 L753.72874,632.62564 C753.441022,632.404947 752.00855,631.295351 753.018626,632.080037 C754.028702,632.864724 752.492162,631.663173 752.235052,631.467001 C747.851934,627.966565 743.664709,624.171872 739.097941,620.941172 C734.545864,617.65968 729.218383,615.622856 723.640715,615.031505 C719.52695,614.590119 715.988623,618.86911 715.988623,622.694455 C715.988623,627.206401 719.514707,629.90989 723.640715,630.357406 C722.887749,630.277711 725.140525,630.75588 725.477217,630.860096 C726.134842,631.039406 726.765036,631.307516 727.350449,631.657043 C729.371819,632.749577 731.295067,634.015102 733.098701,635.439475 C736.343188,637.959053 739.397903,640.723846 742.636268,643.255685 C745.023721,645.094793 747.441782,646.933901 749.853721,648.77301 L753.587942,651.623627 L755.608094,653.217521 L755.871326,653.425953 L757.432353,654.652025 C770.618437,664.969422 785.249237,676.598716 794.964333,689.595081 C796.102964,691.11541 797.449732,692.844172 797.749694,694.566804 C797.719086,694.382893 797.670113,693.610467 797.688478,694.51163 L797.688478,694.916234 C797.786425,694.335893 797.768059,694.311372 797.633383,694.84267 C796.935512,695.18597 797.676234,694.781366 797.633383,694.799757 C797.749956,694.486439 798.002105,694.242951 798.31901,694.137678 C798.955664,693.794378 798.955664,693.737161 798.31901,693.966028 C796.721253,693.806639 794.137907,694.579064 792.068781,694.940756 C789.697025,695.336 787.382264,696.019473 785.175777,696.976035 C780.180491,699.127792 776.250377,703.229003 774.915852,708.62372 C773.501746,714.324956 775.185206,720.099756 777.291062,725.384126 C781.478286,735.891565 785.732849,746.509349 788.867146,757.390739 C789.640799,759.749175 790.127921,762.192355 790.317983,764.667477 C790.317983,765.22534 790.348591,765.777073 790.317983,766.334936 C790.317983,766.500455 790.152698,768.738037 790.275131,767.800092 C790.366956,767.101231 790.134333,768.413128 790.134333,768.413128 C789.971033,768.884313 789.838123,769.365515 789.736424,769.853763 C789.932317,769.406246 788.432507,771.527351 789.17323,770.761056 C789.785397,770.14802 788.646766,770.810099 789.014066,770.840751 C787.251024,770.699752 785.22475,769.872154 783.443343,769.050685 C773.575206,764.526479 764.704901,758.181556 755.620337,752.30254 C747.209158,746.85878 738.736762,741.457932 729.958282,736.633338 C721.16065,731.716224 711.916147,727.647797 702.349535,724.482963 C693.779192,721.724301 684.976225,720.075234 676.21611,718.13191 C668.068163,716.317323 658.781584,714.147175 651.600861,711.081995 C650.57242,710.634479 648.356374,709.543275 646.893294,708.697285 C646.158693,708.26816 645.448579,707.802252 644.732344,707.342475 C644.438503,707.152434 644.120176,706.944002 643.863066,706.729439 C645.087401,707.606081 643.538617,706.429051 643.379454,706.294183 C640.010842,703.513248 637.038668,700.283151 634.545879,696.694039 C633.531689,695.140287 632.603866,693.531688 631.766639,691.875575 C631.350365,691.054107 630.952456,690.226508 630.542304,689.386649 C630.321924,688.904394 630.105625,688.418052 629.893407,687.927623 C629.801582,687.71306 629.409795,686.781246 629.715878,687.504628 C628.136487,683.697674 626.373445,679.602593 626.275498,675.856943 C626.232646,674.146572 626.195916,673.141193 626.789718,672.135814 C626.177551,673.141193 627.81816,671.197869 627.401886,671.485996 C627.902091,671.166735 628.449617,670.928792 629.024129,670.781004 C632.825689,669.659148 636.553788,669.806277 641.267476,669.85532 C652.439302,669.948584 663.584969,670.953199 674.593867,672.859196 C685.710826,674.814782 696.570675,678.799516 707.810067,679.921372 C718.529118,680.988055 733.380298,676.243156 733.570069,663.326486 C733.649651,657.729466 730.319461,652.132447 727.895278,647.264941 C725.875126,643.212772 723.787635,639.215777 722.728586,634.777396 C722.480282,633.841114 722.328487,632.881806 722.275582,631.914518 C722.275582,631.491523 722.275582,631.062398 722.275582,630.639403 C722.275582,630.332885 722.428624,630.228669 722.312312,630.136713 C721.198167,629.278463 722.967331,630.265451 722.23273,630.007976 C722.410259,630.069279 721.804213,630.289972 721.798091,630.283842 C721.79197,630.277711 723.224441,630.345145 723.634593,630.363537 C727.766723,630.571969 731.286685,626.68532 731.286685,622.700586 C731.298929,618.397073 727.79121,615.270589 723.646837,615.056026 Z" id="Shape" fill="#F28A7F" fill-rule="nonzero"></path>
            <g id="more_patterns-14-copy-2" transform="translate(661.000000, 705.000000)" fill="#353435" fill-rule="nonzero">
                <circle id="Oval" transform="translate(2.924529, 4.094340) rotate(-23.570000) translate(-2.924529, -4.094340) " cx="2.92452874" cy="4.09434023" r="1.75471724"></circle>
                <circle id="Oval" transform="translate(16.962267, 9.943398) rotate(-23.570000) translate(-16.962267, -9.943398) " cx="16.9622667" cy="9.9433977" r="1.75471724"></circle>
                <circle id="Oval" transform="translate(11.113209, 2.924529) rotate(-23.570000) translate(-11.113209, -2.924529) " cx="11.1132092" cy="2.92452874" r="1.75471724"></circle>
                <circle id="Oval" transform="translate(20.471701, 4.094340) rotate(-23.570000) translate(-20.471701, -4.094340) " cx="20.4717012" cy="4.09434023" r="1.75471724"></circle>
                <circle id="Oval" transform="translate(6.433963, 21.641513) rotate(-23.570000) translate(-6.433963, -21.641513) " cx="6.43396322" cy="21.6415127" r="1.75471724"></circle>
                <circle id="Oval" transform="translate(15.792455, 22.811324) rotate(-23.570000) translate(-15.792455, -22.811324) " cx="15.7924552" cy="22.8113241" r="1.75471724"></circle>
                <circle id="Oval" transform="translate(13.452832, 15.792455) rotate(-23.570000) translate(-13.452832, -15.792455) " cx="13.4528322" cy="15.7924552" r="1.75471724"></circle>
                <circle id="Oval" transform="translate(2.924529, 12.283021) rotate(-23.570000) translate(-2.924529, -12.283021) " cx="2.92452874" cy="12.2830207" r="1.75471724"></circle>
                <circle id="Oval" transform="translate(8.773586, 11.113209) rotate(-23.570000) translate(-8.773586, -11.113209) " cx="8.77358621" cy="11.1132092" r="1.75471724"></circle>
                <circle id="Oval" transform="translate(22.811324, 12.283021) rotate(-23.570000) translate(-22.811324, -12.283021) " cx="22.8113241" cy="12.2830207" r="1.75471724"></circle>
                <circle id="Oval" transform="translate(21.641513, 20.471701) rotate(-23.570000) translate(-21.641513, -20.471701) " cx="21.6415127" cy="20.4717012" r="1.75471724"></circle>
                <circle id="Oval" transform="translate(28.660382, 9.943398) rotate(-23.570000) translate(-28.660382, -9.943398) " cx="28.6603816" cy="9.9433977" r="1.75471724"></circle>
                <circle id="Oval" transform="translate(39.188685, 14.622644) rotate(-23.570000) translate(-39.188685, -14.622644) " cx="39.1886851" cy="14.6226437" r="1.75471724"></circle>
                <circle id="Oval" transform="translate(34.509439, 18.132078) rotate(-23.570000) translate(-34.509439, -18.132078) " cx="34.5094391" cy="18.1320782" r="1.75471724"></circle>
                <circle id="Oval" transform="translate(27.490570, 16.962267) rotate(-23.570000) translate(-27.490570, -16.962267) " cx="27.4905701" cy="16.9622667" r="1.75471724"></circle>
                <circle id="Oval" transform="translate(38.018874, 8.773586) rotate(-23.570000) translate(-38.018874, -8.773586) " cx="38.0188736" cy="8.77358621" r="1.75471724"></circle>
                <circle id="Oval" transform="translate(26.320759, 5.264152) rotate(-23.570000) translate(-26.320759, -5.264152) " cx="26.3207586" cy="5.26415173" r="1.75471724"></circle>
                <circle id="Oval" transform="translate(32.169816, 4.094340) rotate(-23.570000) translate(-32.169816, -4.094340) " cx="32.1698161" cy="4.09434023" r="1.75471724"></circle>
                <circle id="Oval" transform="translate(12.283021, 33.339628) rotate(-23.570000) translate(-12.283021, -33.339628) " cx="12.2830207" cy="33.3396276" r="1.75471724"></circle>
                <circle id="Oval" transform="translate(26.320759, 39.188685) rotate(-23.570000) translate(-26.320759, -39.188685) " cx="26.3207586" cy="39.1886851" r="1.75471724"></circle>
                <circle id="Oval" transform="translate(20.471701, 32.169816) rotate(-23.570000) translate(-20.471701, -32.169816) " cx="20.4717012" cy="32.1698161" r="1.75471724"></circle>
                <circle id="Oval" transform="translate(26.320759, 27.490570) rotate(-23.570000) translate(-26.320759, -27.490570) " cx="26.3207586" cy="27.4905701" r="1.75471724"></circle>
                <circle id="Oval" transform="translate(29.830193, 33.339628) rotate(-23.570000) translate(-29.830193, -33.339628) " cx="29.8301931" cy="33.3396276" r="1.75471724"></circle>
                <circle id="Oval" transform="translate(15.792455, 50.886800) rotate(-23.570000) translate(-15.792455, -50.886800) " cx="15.7924552" cy="50.8868" r="1.75471724"></circle>
                <circle id="Oval" transform="translate(23.981136, 52.056612) rotate(-23.570000) translate(-23.981136, -52.056612) " cx="23.9811356" cy="52.0566115" r="1.75471724"></circle>
                <circle id="Oval" transform="translate(22.811324, 46.207554) rotate(-23.570000) translate(-22.811324, -46.207554) " cx="22.8113241" cy="46.207554" r="1.75471724"></circle>
                <circle id="Oval" transform="translate(12.283021, 41.528308) rotate(-23.570000) translate(-12.283021, -41.528308) " cx="12.2830207" cy="41.5283081" r="1.75471724"></circle>
                <circle id="Oval" transform="translate(5.264152, 27.490570) rotate(-23.570000) translate(-5.264152, -27.490570) " cx="5.26415173" cy="27.4905701" r="1.75471724"></circle>
                <circle id="Oval" transform="translate(16.962267, 40.358497) rotate(-23.570000) translate(-16.962267, -40.358497) " cx="16.9622667" cy="40.3584966" r="1.75471724"></circle>
                <circle id="Oval" transform="translate(31.000005, 41.528308) rotate(-23.570000) translate(-31.000005, -41.528308) " cx="31.0000046" cy="41.5283081" r="1.75471724"></circle>
                <circle id="Oval" transform="translate(31.000005, 48.547177) rotate(-23.570000) translate(-31.000005, -48.547177) " cx="31.0000046" cy="48.547177" r="1.75471724"></circle>
                <circle id="Oval" transform="translate(38.018874, 39.188685) rotate(-23.570000) translate(-38.018874, -39.188685) " cx="38.0188736" cy="39.1886851" r="1.75471724"></circle>
                <circle id="Oval" transform="translate(36.849062, 25.150947) rotate(-23.570000) translate(-36.849062, -25.150947) " cx="36.8490621" cy="25.1509471" r="1.75471724"></circle>
                <circle id="Oval" transform="translate(31.000005, 22.811324) rotate(-23.570000) translate(-31.000005, -22.811324) " cx="31.0000046" cy="22.8113241" r="1.75471724"></circle>
                <circle id="Oval" transform="translate(43.867931, 23.981136) rotate(-23.570000) translate(-43.867931, -23.981136) " cx="43.8679311" cy="23.9811356" r="1.75471724"></circle>
                <circle id="Oval" transform="translate(36.849062, 46.207554) rotate(-23.570000) translate(-36.849062, -46.207554) " cx="36.8490621" cy="46.207554" r="1.75471724"></circle>
                <circle id="Oval" transform="translate(35.679251, 33.339628) rotate(-23.570000) translate(-35.679251, -33.339628) " cx="35.6792506" cy="33.3396276" r="1.75471724"></circle>
                <circle id="Oval" transform="translate(41.528308, 33.339628) rotate(-23.570000) translate(-41.528308, -33.339628) " cx="41.5283081" cy="33.3396276" r="1.75471724"></circle>
            </g>
            <path d="M727.089472,1007.44106 L770.068946,927.680817 L782.402459,904.790823 C783.671983,902.434195 782.809402,899.065212 780.844249,897.696045 C778.75736,896.227301 776.169618,897.194017 774.896616,899.554794 L731.913663,979.306736 L719.597541,1002.20918 C718.328017,1004.56581 719.190598,1007.93479 721.155751,1009.30396 C723.24264,1010.7727 725.830382,1009.80598 727.103384,1007.44521 L727.089472,1007.44106 Z" id="Shape" fill="#FECF0A" fill-rule="nonzero"></path>
            <path d="M704.010099,965.435738 L750.406443,878.819534 C751.671173,876.462573 750.801671,873.068717 748.866772,871.698682 C746.780655,870.220377 744.254631,871.203137 742.989901,873.564262 L696.593557,960.180466 C695.328827,962.537427 696.198329,965.931283 698.133228,967.301318 C700.219345,968.779623 702.745369,967.796863 704.010099,965.435738 Z" id="Shape" fill="#FECF0A" fill-rule="nonzero"></path>
            <path d="M687.913534,936.430904 C701.98392,911.616201 715.148506,886.067573 727.407293,859.785021 C730.117915,853.95802 722.806013,848.71788 720.092003,854.532395 C707.846769,880.776101 694.683312,906.324729 680.601631,931.178278 C679.293756,933.484106 680.262803,936.959496 682.119579,938.295544 C684.227088,939.810565 686.60227,938.740894 687.913534,936.430904 Z" id="Shape" fill="#FECF0A" fill-rule="nonzero"></path>
        </g>
    </g>
</svg>