<?xml version="1.0" encoding="UTF-8"?>
<svg width="904px" height="870px" viewBox="0 0 904 870" version="1.1" xmlns="http://www.w3.org/2000/svg" xmlns:xlink="http://www.w3.org/1999/xlink">
    <!-- Generator: Sketch 51.2 (57519) - http://www.bohemiancoding.com/sketch -->
    <title>Group</title>
    <desc>Created with Sketch.</desc>
    <defs></defs>
    <g id="Page-1" stroke="none" stroke-width="1" fill="none" fill-rule="evenodd">
        <g id="Group">
            <g id="Splash" fill="#082B49">
                <polygon id="Combined-Shape-path" points="704 0 644 0 624 40 546 40 526 80 604 80 584.047802 119.999781 506 120 486 160 564 160 544 200 604 200"></polygon>
                <polygon id="Combined-Shape-path" points="436 0 336 200 396 200 496 0"></polygon>
                <polygon id="Combined-Shape-path" points="200 0 140 0 240 200 300 200"></polygon>
                <polygon id="Combined-Shape-path" points="316 100 356 20 276 20"></polygon>
                <polygon id="Combined-Shape-path" points="784 100 824 20 744 20"></polygon>
                <polygon id="Combined-Shape-path" points="724 100 684 180 764 180"></polygon>
                <polygon id="Combined-Shape-path" points="120 100 80 180 160 180"></polygon>
                <polygon id="Combined-Shape-path" points="0 0 2.27373675e-14 200 100 0"></polygon>
                <polygon id="Combined-Shape-path" transform="translate(854.000000, 100.000000) scale(-1, -1) translate(-854.000000, -100.000000) " points="804 0 804 200 904 2.77555756e-15"></polygon>
            </g>
            <rect id="Rectangle" fill="#F5F5F5" fill-rule="nonzero" x="0" y="240" width="904" height="630"></rect>
            <text id="CODE-LIVE" font-family="AndaleMono, Andale Mono" font-size="280" font-weight="normal">
                <tspan x="116" y="494" fill="#082B49">CODE</tspan>
                <tspan x="788.109375" y="494" fill="#866565"></tspan>
                <tspan x="116" y="809" fill="#641D0E">LIVE</tspan>
            </text>
        </g>
    </g>
</svg>