<?xml version="1.0" encoding="UTF-8"?>
<svg width="500px" height="488px" viewBox="0 0 500 488" version="1.1" xmlns="http://www.w3.org/2000/svg" xmlns:xlink="http://www.w3.org/1999/xlink">
    <!-- Generator: Sketch 51.2 (57519) - http://www.bohemiancoding.com/sketch -->
    <title>gh</title>
    <desc>Created with Sketch.</desc>
    <defs></defs>
    <g id="Page-1" stroke="none" stroke-width="1" fill="none" fill-rule="evenodd">
        <path d="M250,0.152771879 C111.958333,0.152771879 0,112.090272 0,250.152772 C0,360.611105 71.625,454.319439 170.979167,487.381939 C183.458333,489.694439 187.5,481.944439 187.5,475.361105 L187.5,428.819439 C117.958333,443.944439 103.479167,399.319439 103.479167,399.319439 C92.1041667,370.423605 75.7083333,362.736105 75.7083333,362.736105 C53.0208333,347.215272 77.4375,347.548605 77.4375,347.548605 C102.541667,349.298605 115.75,373.319439 115.75,373.319439 C138.041667,411.527772 174.229167,400.486105 188.5,394.090272 C190.729167,377.944439 197.208333,366.902772 204.375,360.673605 C148.854167,354.319439 90.4791667,332.881939 90.4791667,237.111105 C90.4791667,209.798605 100.25,187.506939 116.229167,170.006939 C113.645833,163.694439 105.083333,138.256939 118.666667,103.840272 C118.666667,103.840272 139.666667,97.1319385 187.4375,129.465272 C207.375,123.923605 228.75,121.152772 250,121.048605 C271.25,121.152772 292.645833,123.923605 312.625,129.465272 C360.354167,97.1319385 381.3125,103.840272 381.3125,103.840272 C394.916667,138.277772 386.354167,163.715272 383.770833,170.006939 C399.8125,187.506939 409.5,209.819439 409.5,237.111105 C409.5,333.131939 351.020833,354.277772 295.354167,360.465272 C304.3125,368.215272 312.5,383.423605 312.5,406.756939 L312.5,475.361105 C312.5,482.006939 316.5,489.819439 329.1875,487.361105 C428.458333,454.256939 500,360.569439 500,250.152772 C500,112.090272 388.0625,0.152771879 250,0.152771879 Z" id="gh" fill="#656565" fill-rule="nonzero"></path>
    </g>
</svg>