<?xml version="1.0" encoding="UTF-8"?>
<svg width="500px" height="407px" viewBox="0 0 500 407" version="1.1" xmlns="http://www.w3.org/2000/svg" xmlns:xlink="http://www.w3.org/1999/xlink">
    <!-- Generator: Sketch 51.2 (57519) - http://www.bohemiancoding.com/sketch -->
    <title>tw</title>
    <desc>Created with Sketch.</desc>
    <defs></defs>
    <g id="Page-1" stroke="none" stroke-width="1" fill="none" fill-rule="evenodd">
        <path d="M500,48.1424446 C481.604999,56.3096452 461.832498,61.8270096 441.084997,64.309198 C462.259998,51.6029956 478.527499,31.4827567 486.187499,7.50661819 C466.364998,19.2744933 444.412497,27.8170248 421.044996,32.421084 C402.334995,12.4659906 375.674994,0 346.169992,0 C289.519989,0 243.587987,45.9680276 243.587987,102.668017 C243.587987,110.715112 244.494987,118.552021 246.244237,126.066146 C160.990233,121.784871 85.4022293,80.908833 34.8094767,18.7915675 C25.9784763,33.9549363 20.919901,51.5929868 20.919901,70.4095764 C20.919901,106.030982 39.029227,137.456188 66.5557283,155.86742 C49.7402275,155.33445 33.9219767,150.715378 20.092751,143.026099 C20.083001,143.453976 20.083001,143.881853 20.083001,144.317237 C20.083001,194.061844 55.4432528,235.556428 102.369255,244.991496 C93.7627547,247.337314 84.7002542,248.593422 75.3447538,248.593422 C68.7345034,248.593422 62.3085031,247.948353 56.0440028,246.750797 C69.0977535,287.538758 106.981505,317.225181 151.870008,318.050158 C116.762756,345.589938 72.5322536,362.00391 24.4707012,362.00391 C16.1904258,362.00391 8.0244254,361.51623 0,360.568144 C45.3965023,389.698226 99.317505,406.698565 157.247008,406.698565 C345.930017,406.698565 449.112522,250.251133 449.112522,114.573513 C449.112522,110.122089 449.010022,105.695686 448.812522,101.291804 C468.857498,86.8140393 486.247499,68.7330983 500,48.1424446" id="tw" fill="#278DB3" fill-rule="nonzero"></path>
    </g>
</svg>