<?xml version="1.0" encoding="UTF-8"?>
<svg width="701px" height="297px" viewBox="0 0 701 297" version="1.1" xmlns="http://www.w3.org/2000/svg" xmlns:xlink="http://www.w3.org/1999/xlink">
    <!-- Generator: Sketch 52.5 (67469) - http://www.bohemiancoding.com/sketch -->
    <title>OnoBlendsLogo</title>
    <desc>Created with Sketch.</desc>
    <g id="Page-1" stroke="none" stroke-width="1" fill="none" fill-rule="evenodd">
        <g id="OnoBlends-Logo" fill="#000000">
            <path d="M0,94.7252277 C0,28.9839208 43.1288515,1.35202772 89.1866337,1.35202772 C135.244416,1.35202772 178.373267,28.9839208 178.373267,94.3032396 L178.373267,202.332198 C178.373267,269.329752 135.244416,295.705398 89.1866337,295.705398 C43.1288515,295.705398 0,270.584612 0,202.750022 L0,94.7252277 Z M111.377101,96.3909703 C111.377101,77.5486455 101.331285,70.0167129 89.1866337,70.0167129 C77.0419822,70.0167129 66.9961663,77.554198 66.9961663,96.3909703 L66.9961663,201.486834 C66.9961663,219.912723 77.0461465,227.444655 89.1866337,227.444655 C101.327121,227.444655 111.377101,219.90717 111.377101,201.486834 L111.377101,96.3909703 Z" id="Shape" fill-rule="nonzero"></path>
            <polygon id="Path" points="271.099604 144.133929 268.587109 144.133929 268.587109 287.340594 206.198109 287.340594 206.198109 9.72377228 276.963018 9.72377228 326.789543 139.108939 329.302038 139.108939 329.302038 9.72377228 391.26905 9.72377228 391.26905 287.340594 323.438624 287.340594"></polygon>
            <path d="M419.093891,94.7252277 C419.093891,28.9839208 462.222743,1.35202772 508.280525,1.35202772 C554.338307,1.35202772 597.467158,28.9839208 597.467158,94.3032396 L597.467158,202.332198 C597.467158,269.329752 554.338307,295.705398 508.280525,295.705398 C462.222743,295.705398 419.093891,270.580448 419.093891,202.750022 L419.093891,94.7252277 Z M530.470992,96.3909703 C530.470992,77.5486455 520.425176,70.0167129 508.280525,70.0167129 C496.135873,70.0167129 486.090057,77.554198 486.090057,96.3909703 L486.090057,201.486834 C486.090057,219.912723 496.140038,227.444655 508.280525,227.444655 C520.421012,227.444655 530.470992,219.90717 530.470992,201.486834 L530.470992,96.3909703 Z" id="Shape" fill-rule="nonzero"></path>
            <g id="Group" transform="translate(623.265347, 8.328713)">
                <path d="M74.2088317,273.235271 L3.33148515,273.235271 L3.33148515,255.439896 C3.33148515,242.375759 12.2043406,236.816885 21.5061248,236.816885 C28.1413914,236.695423 34.3112151,239.76061 37.5430614,244.784083 L38.0774871,244.784083 C40.0028079,239.595721 46.6310752,235.70535 54.0075386,235.70535 C65.6677366,235.70535 74.2143842,241.540906 74.2143842,254.141903 L74.2088317,273.235271 Z M31.4436673,259.845132 L31.4436673,257.543138 C31.4436673,253.156964 29.0908059,251.183826 25.2429406,251.183826 C21.286802,251.183826 19.149099,253.047345 19.149099,256.995045 L19.149099,259.842285 L31.4436673,259.845132 Z M45.448398,259.18952 L58.5994356,259.18952 L58.5994356,256.062878 C58.5994356,252.441044 55.9273069,250.528214 52.1849386,250.528214 C48.1219149,250.528214 45.448398,252.441044 45.448398,256.366004 L45.448398,259.18952 Z" id="Shape" fill-rule="nonzero"></path>
                <polygon id="Path" points="3.33148515 229.504624 3.33148515 212.611218 57.108596 212.611218 57.108596 195.077889 74.2088317 195.077889 74.2088317 229.503236"></polygon>
                <polygon id="Path" points="3.33148515 189.422693 3.33148515 153.609228 20.3303881 153.609228 20.3303881 172.318293 29.3115168 172.318293 29.3115168 154.461533 45.3470653 154.461533 45.3470653 172.315517 57.108596 172.315517 57.108596 153.177523 74.2088317 153.177523 74.2088317 189.422693"></polygon>
                <polygon id="Path" points="37.6457822 129.657238 37.6457822 130.298549 74.2088317 130.298549 74.2088317 146.2286 3.33148515 146.2286 3.33148515 128.160846 36.3687129 115.437349 36.3687129 114.797426 3.33148515 114.797426 3.33148515 98.9728713 74.2088317 98.9728713 74.2088317 116.29243"></polygon>
                <path d="M3.33148515,84.4664931 L3.33148515,70.6633232 C3.33148515,56.0430698 8.78401584,48.4134198 29.3115168,48.4134198 L48.2343525,48.4134198 C68.7618535,48.4134198 74.2143842,56.0418907 74.2143842,70.6633232 L74.2143842,84.4664931 L3.33148515,84.4664931 Z M27.0683168,63.0348523 C22.1502119,63.0348523 20.5441584,64.9334232 20.5441584,69.0670575 L20.5441584,71.5240317 L56.9961584,71.5240317 L56.9961584,69.0670575 C56.9961584,64.9334232 55.285996,63.0348523 50.472,63.0348523 L27.0683168,63.0348523 Z" id="Shape" fill-rule="nonzero"></path>
                <path d="M43.4175802,29.8112396 C35.9342317,39.968105 29.1990792,42.5333485 20.6454911,42.5333485 C8.67157822,42.5333485 1.1882297,32.0572158 1.1882297,21.1563188 C1.1882297,10.573301 6.96002772,-0.119378218 26.3131802,0.416435644 L26.3131802,15.5913505 C19.8986832,15.3775802 16.3700851,16.8739723 16.3700851,20.8301109 C16.3700851,24.3587089 18.2954059,25.7482158 20.9675347,25.7482158 C22.7859703,25.7482158 25.3512139,25.0000198 28.0233426,21.4714218 L35.0805386,12.0627525 C42.6707723,2.01277228 48.9783842,0.0902277228 55.8204218,0.0902277228 C68.5439188,0.0902277228 76.3479228,9.9250495 76.3479228,21.579695 C76.3479228,32.9109089 70.3609663,43.3884297 51.3312455,42.854004 L51.3312455,27.6721485 C58.066398,27.8873069 60.8468,26.0688713 60.8468,22.2196178 C61.0049571,20.9584083 60.5717014,19.694856 59.6729069,18.7960615 C58.7741124,17.897267 57.51056,17.4640112 56.2493505,17.6221683 C54.6460733,17.6221683 52.1863267,17.8373267 49.1921545,21.8989624 L43.4175802,29.8112396 Z" id="Path"></path>
                <path d="M74.2088317,273.235271 L3.33148515,273.235271 L3.33148515,255.439896 C3.33148515,242.375759 12.2043406,236.816885 21.5061248,236.816885 C28.1413914,236.695423 34.3112151,239.76061 37.5430614,244.784083 L38.0774871,244.784083 C40.0028079,239.595721 46.6310752,235.70535 54.0075386,235.70535 C65.6677366,235.70535 74.2143842,241.540906 74.2143842,254.141903 L74.2088317,273.235271 Z M31.4436673,259.845132 L31.4436673,257.543138 C31.4436673,253.156964 29.0908059,251.183826 25.2429406,251.183826 C21.286802,251.183826 19.149099,253.047345 19.149099,256.995045 L19.149099,259.842285 L31.4436673,259.845132 Z M45.448398,259.18952 L58.5994356,259.18952 L58.5994356,256.062878 C58.5994356,252.441044 55.9273069,250.528214 52.1849386,250.528214 C48.1219149,250.528214 45.448398,252.441044 45.448398,256.366004 L45.448398,259.18952 Z" id="Shape" fill-rule="nonzero"></path>
                <polygon id="Path" points="3.33148515 229.504624 3.33148515 212.611218 57.108596 212.611218 57.108596 195.077889 74.2088317 195.077889 74.2088317 229.503236"></polygon>
                <polygon id="Path" points="3.33148515 189.422693 3.33148515 153.609228 20.3303881 153.609228 20.3303881 172.318293 29.3115168 172.318293 29.3115168 154.461533 45.3470653 154.461533 45.3470653 172.315517 57.108596 172.315517 57.108596 153.177523 74.2088317 153.177523 74.2088317 189.422693"></polygon>
                <polygon id="Path" points="37.6457822 129.657238 37.6457822 130.298549 74.2088317 130.298549 74.2088317 146.2286 3.33148515 146.2286 3.33148515 128.160846 36.3687129 115.437349 36.3687129 114.797426 3.33148515 114.797426 3.33148515 98.9728713 74.2088317 98.9728713 74.2088317 116.29243"></polygon>
                <path d="M3.33148515,84.4664931 L3.33148515,70.6633232 C3.33148515,56.0430698 8.78401584,48.4134198 29.3115168,48.4134198 L48.2343525,48.4134198 C68.7618535,48.4134198 74.2143842,56.0418907 74.2143842,70.6633232 L74.2143842,84.4664931 L3.33148515,84.4664931 Z M27.0683168,63.0348523 C22.1502119,63.0348523 20.5441584,64.9334232 20.5441584,69.0670575 L20.5441584,71.5240317 L56.9961584,71.5240317 L56.9961584,69.0670575 C56.9961584,64.9334232 55.285996,63.0348523 50.472,63.0348523 L27.0683168,63.0348523 Z" id="Shape" fill-rule="nonzero"></path>
                <path d="M43.4175802,29.8112396 C35.9342317,39.968105 29.1990792,42.5333485 20.6454911,42.5333485 C8.67157822,42.5333485 1.1882297,32.0572158 1.1882297,21.1563188 C1.1882297,10.573301 6.96002772,-0.119378218 26.3131802,0.416435644 L26.3131802,15.5913505 C19.8986832,15.3775802 16.3700851,16.8739723 16.3700851,20.8301109 C16.3700851,24.3587089 18.2954059,25.7482158 20.9675347,25.7482158 C22.7859703,25.7482158 25.3512139,25.0000198 28.0233426,21.4714218 L35.0805386,12.0627525 C42.6707723,2.01277228 48.9783842,0.0902277228 55.8204218,0.0902277228 C68.5439188,0.0902277228 76.3479228,9.9250495 76.3479228,21.579695 C76.3479228,32.9109089 70.3609663,43.3884297 51.3312455,42.854004 L51.3312455,27.6721485 C58.066398,27.8873069 60.8468,26.0688713 60.8468,22.2196178 C61.0049571,20.9584083 60.5717014,19.694856 59.6729069,18.7960615 C58.7741124,17.897267 57.51056,17.4640112 56.2493505,17.6221683 C54.6460733,17.6221683 52.1863267,17.8373267 49.1921545,21.8989624 L43.4175802,29.8112396 Z" id="Path"></path>
            </g>
        </g>
    </g>
</svg>